<svg width="24" height="24" viewBox="0 0 24 24" fill="none" xmlns="http://www.w3.org/2000/svg">
<path d="M14.1279 22.0543V22.0543C13.887 22.0543 13.6559 21.9587 13.4855 21.7883C13.3151 21.6179 13.2195 21.3867 13.2195 21.1458L13.2195 3.70607C13.2104 3.52877 13.2534 3.35249 13.3433 3.19925C13.4346 3.04364 13.57 2.91878 13.7324 2.84039C13.8948 2.76198 14.0769 2.73362 14.2555 2.75894C14.433 2.78411 14.599 2.8612 14.7327 2.98031L14.7381 2.98489L14.7457 2.99135L14.7527 2.99839L22.9841 11.2287L22.9842 11.2289C23.0684 11.3132 23.1353 11.4132 23.181 11.5236C23.2266 11.6339 23.25 11.7521 23.25 11.8714C23.2499 11.9907 23.2264 12.1088 23.1806 12.2191C23.1348 12.3294 23.0678 12.4294 22.9835 12.5136C22.8991 12.5979 22.7989 12.6648 22.6886 12.7104C22.5785 12.7559 22.4604 12.7795 22.3409 12.7794C22.2215 12.7793 22.1034 12.7557 21.9933 12.71C21.883 12.6642 21.7829 12.5972 21.6987 12.5129M14.1279 22.0543L21.8755 12.3362M14.1279 22.0543L14.1336 22.0542C14.2532 22.0515 14.3711 22.0251 14.4804 21.9767C14.5896 21.9284 14.6883 21.859 14.7708 21.7722C14.8532 21.6854 14.9176 21.5833 14.9603 21.4717C15.0027 21.3612 15.023 21.2434 15.0201 21.1252M14.1279 22.0543L14.7701 5.23088V5.58443L15.0201 5.83442M21.6987 12.5129L21.8755 12.3362M21.6987 12.5129L21.6988 12.513L21.8755 12.3362M21.6987 12.5129L15.0201 5.83442M21.8755 12.3362L15.0201 5.48087V5.83442M15.0201 5.83442L15.0201 21.1252M15.0201 21.1252C15.0201 21.1239 15.0201 21.1226 15.02 21.1213L14.7701 21.1284H15.0201V21.1252ZM9.87204 2.74994V2.74987L9.8663 2.75001C9.62643 2.75551 9.3985 2.85579 9.23238 3.02893C9.06686 3.20144 8.97608 3.43225 8.97983 3.67131L8.97983 18.9633L2.30133 12.2847C2.131 12.1142 1.89995 12.0185 1.65907 12.0183C1.41818 12.0182 1.18702 12.1137 1.0165 12.284C0.846013 12.4543 0.750141 12.6854 0.75 12.9263C0.74986 13.1673 0.845455 13.3984 1.01573 13.5689L1.01584 13.569L9.18161 21.7337V21.7471L9.26462 21.8216C9.39882 21.942 9.56585 22.02 9.74448 22.0453C9.92307 22.0706 10.1051 22.0422 10.2675 21.9638C10.43 21.8854 10.5655 21.7604 10.6567 21.6048C10.7466 21.4516 10.7896 21.2754 10.7805 21.0982L10.7805 3.65834C10.7805 3.41741 10.6848 3.18635 10.5144 3.01597C10.344 2.84555 10.1129 2.74994 9.87204 2.74994Z" fill="#080808" stroke="#080808" stroke-width="0.5"/>
</svg>
