<svg width="35" height="35" viewBox="0 0 35 35" fill="none" xmlns="http://www.w3.org/2000/svg">
<circle cx="17.5" cy="17.5" r="17.5" fill="#715FF5"/>
<path d="M22.0341 14.281C22.678 14.4674 23.5547 14.8528 23.8546 14.9913C24.1084 14.0329 24.0776 13.0653 23.7818 12.0873C22.9758 9.42287 20.5839 7.60614 17.7845 7.58981C17.6028 7.58907 17.4239 7.59303 17.2479 7.60169C14.639 7.73164 12.6419 8.9432 11.4531 11.3986C11.3684 11.5738 11.2927 11.75 11.2261 11.9269C13.3934 12.0617 17.6392 13.0847 17.773 13.1392C20.4327 13.2618 21.8208 14.1584 22.0341 14.281Z" fill="white"/>
<path d="M24.8167 23.6242C24.7001 23.3461 24.534 23.0925 24.3764 22.8389C24.3664 22.8226 24.3534 22.8003 24.3374 22.7725L24.3363 22.7699C24.3206 22.7428 24.3031 22.7108 24.2831 22.6737C24.2753 22.6585 24.2653 22.6399 24.2567 22.6236C24.243 22.598 24.2303 22.5742 24.2155 22.5452C24.201 22.5177 24.1846 22.4854 24.169 22.4549C24.1579 22.4334 24.1475 22.4137 24.1359 22.3907C24.1166 22.3525 24.0958 22.3106 24.0753 22.2689C24.0656 22.2496 24.0567 22.2318 24.0467 22.2117C24.0251 22.1676 24.0021 22.1204 23.979 22.0729C23.969 22.0521 23.9597 22.0328 23.9494 22.0116C23.9256 21.9619 23.901 21.9099 23.8765 21.8575C23.8665 21.836 23.8568 21.8159 23.8468 21.794C23.8208 21.7387 23.7948 21.6815 23.7684 21.6236C23.7591 21.6032 23.7498 21.5831 23.7405 21.5623C23.7141 21.5044 23.6882 21.445 23.6617 21.3852C23.6517 21.3626 23.6417 21.3403 23.6316 21.3173C23.6056 21.2575 23.58 21.1966 23.554 21.1357C23.5439 21.1119 23.5339 21.0886 23.5238 21.0648C23.4982 21.0039 23.4733 20.9426 23.4484 20.8814C23.4384 20.8561 23.428 20.8308 23.418 20.8056C23.3938 20.7455 23.3708 20.6854 23.3473 20.6248C23.3369 20.5981 23.3265 20.5713 23.3165 20.5442C23.2942 20.4852 23.273 20.4269 23.2518 20.3682C23.2418 20.3396 23.231 20.3114 23.2214 20.2832C23.2013 20.2264 23.1827 20.1703 23.1642 20.1142C23.1541 20.0846 23.144 20.0552 23.1348 20.0259C23.1173 19.9713 23.1014 19.9178 23.0854 19.8647C23.0764 19.8351 23.0672 19.805 23.059 19.7756C23.0445 19.7244 23.0315 19.6745 23.0185 19.6249C23.0069 19.5796 22.9943 19.5335 22.9843 19.4901C22.8081 19.0141 22.7115 19.0802 22.7115 18.5433C22.7115 17.9934 23.1935 16.9411 23.4674 16.1243C23.5703 15.8891 23.6577 15.6475 23.729 15.401C23.745 15.3564 23.7562 15.3115 23.7703 15.267C23.3671 15.0702 22.0519 14.5882 22.0519 14.5882C21.7594 15.3408 21.499 15.59 21.1309 15.9579C20.2788 16.5319 20.0012 16.4737 19.3683 16.4673C18.3742 16.2546 18.0773 15.6159 17.832 15.1838C17.5091 14.4356 17.5738 13.3863 17.5738 13.3863C17.5738 13.3863 16.0092 13.0143 13.8831 12.6103C12.1525 12.2674 11.4973 12.2069 11.1282 12.2054C11.0944 12.3082 11.0632 12.4114 11.0353 12.515H11.0357C10.986 12.6553 10.9532 12.801 10.938 12.9491C10.8841 13.2399 10.8528 13.5345 10.8444 13.8302C10.8599 14.3658 10.9587 14.8958 11.1372 15.4011C11.2085 15.6477 11.296 15.8894 11.3992 16.1244C11.5401 16.5458 11.7367 17.0293 11.8938 17.4748C12.0418 17.8929 12.1551 18.2772 12.1551 18.5434C12.1551 19.0803 12.0585 19.0142 11.8823 19.4902C11.8719 19.5337 11.8593 19.5797 11.8477 19.625C11.8351 19.6748 11.8221 19.7245 11.8076 19.7758C11.7991 19.8051 11.7898 19.8352 11.7813 19.8649C11.7653 19.918 11.7493 19.9714 11.7318 20.026C11.7222 20.0553 11.7122 20.0847 11.7025 20.1144C11.6839 20.1704 11.6653 20.2265 11.6452 20.2833C11.6352 20.3115 11.6248 20.3398 11.6144 20.3683C11.5936 20.427 11.5724 20.4853 11.5501 20.5444C11.5401 20.5715 11.5293 20.5982 11.5189 20.6249C11.4959 20.6855 11.4725 20.7457 11.4487 20.8057C11.4387 20.831 11.4282 20.8563 11.4178 20.8815C11.3929 20.9428 11.368 21.004 11.3428 21.0649C11.3327 21.0887 11.3227 21.1121 11.3127 21.1359C11.2867 21.1967 11.2607 21.2576 11.2346 21.3174C11.2246 21.3404 11.2149 21.3627 11.205 21.3854C11.1786 21.4451 11.1522 21.5046 11.1262 21.5625C11.1165 21.5833 11.1076 21.6033 11.098 21.6238C11.072 21.6817 11.0455 21.7388 11.0199 21.7942C11.0095 21.8161 10.9998 21.8361 10.9898 21.8577C10.9653 21.9099 10.9407 21.962 10.917 22.0117C10.9069 22.0329 10.8973 22.0522 10.8872 22.073C10.8646 22.1205 10.8415 22.1677 10.8196 22.2119C10.81 22.2319 10.801 22.2498 10.7914 22.2691C10.7705 22.3106 10.7497 22.3526 10.7304 22.3908C10.7189 22.4139 10.7085 22.4335 10.6977 22.4551C10.6817 22.4855 10.6657 22.5178 10.6513 22.5453C10.6364 22.5743 10.6233 22.598 10.61 22.6237C10.6011 22.64 10.5914 22.6586 10.5832 22.6738C10.5635 22.711 10.5457 22.7429 10.5305 22.77L10.529 22.7726C10.5133 22.8005 10.5003 22.8227 10.4903 22.8391C10.3324 23.0927 10.1666 23.3463 10.0499 23.6244C9.94292 23.8794 9.75563 24.1709 9.95225 24.4524C10.1629 24.7538 10.4837 24.6744 10.7583 24.5994C11.1968 24.4798 11.5495 24.1709 11.8554 23.8074C12.2914 23.2894 12.7068 22.7488 13.1394 22.2269C13.1717 22.1875 13.2051 22.147 13.2397 22.108C13.3437 21.9915 13.4604 21.8912 13.6106 21.8953C13.6408 21.896 13.6708 21.9007 13.6997 21.9094C13.977 21.9889 14.0063 22.2981 14.0446 22.5455C14.0654 22.6799 14.0799 22.815 14.09 22.9505C14.1097 23.2216 14.1108 23.4945 14.1067 23.7678C14.1045 23.9041 14.1011 24.0407 14.0982 24.1773C14.0844 24.7956 14 25.3859 14.2847 25.9191C14.5935 26.4977 14.9946 26.5644 15.4446 26.1226C16.0425 25.5356 16.3331 24.7061 16.4658 23.8944C16.4959 23.7114 16.5216 23.5261 16.552 23.3427C16.5673 23.251 16.5836 23.16 16.6026 23.0694C16.6215 22.9792 16.6427 22.8897 16.6676 22.8013C16.694 22.7066 16.7196 22.6071 16.7494 22.5095C16.7768 22.413 16.8125 22.3191 16.856 22.2288C16.8769 22.1861 16.9011 22.1451 16.9285 22.1062C16.9805 22.0298 17.0501 21.9669 17.1314 21.9228C17.175 21.9 17.2215 21.8831 17.2696 21.8727C17.2974 21.8666 17.3256 21.8628 17.354 21.8612C17.3811 21.8593 17.4855 21.8593 17.5127 21.8612C17.5411 21.8627 17.5693 21.8666 17.5971 21.8727C17.6452 21.8831 17.6917 21.8999 17.7353 21.9228C17.8167 21.9669 17.8864 22.0298 17.9386 22.1062C18.0192 22.2202 18.0731 22.3628 18.1177 22.5095C18.1475 22.6071 18.1727 22.7066 18.1995 22.8013C18.224 22.8897 18.2455 22.979 18.2641 23.0694C18.321 23.3408 18.3559 23.6197 18.4009 23.8944C18.5339 24.7061 18.8242 25.5356 19.4221 26.1226C19.8725 26.5644 20.2731 26.4976 20.5823 25.9191C20.6172 25.8537 20.6473 25.786 20.6727 25.7164C20.8469 25.2378 20.7808 24.718 20.7689 24.1773C20.7659 24.0407 20.7622 23.9041 20.7603 23.7678C20.7562 23.4946 20.7573 23.2217 20.7771 22.9505C20.7867 22.815 20.8012 22.6799 20.822 22.5455C20.8607 22.2982 20.8896 21.9889 21.1669 21.9094C21.196 21.9007 21.2261 21.896 21.2564 21.8953C21.4062 21.8912 21.5233 21.9914 21.6273 22.108C21.6619 22.147 21.695 22.1875 21.7276 22.2269C22.1602 22.7489 22.5753 23.2895 23.0116 23.8074C23.3171 24.1709 23.6698 24.4798 24.1083 24.5994C24.3833 24.6743 24.704 24.7539 24.9143 24.4524C25.1107 24.1708 24.9234 23.8794 24.8167 23.6242ZM14.5332 15.4482C14.4021 15.4483 14.2739 15.4095 14.1649 15.3367C14.0559 15.264 13.9709 15.1605 13.9207 15.0395C13.8705 14.9185 13.8574 14.7854 13.883 14.6569C13.9085 14.5284 13.9717 14.4104 14.0644 14.3178C14.1571 14.2252 14.2752 14.1621 14.4038 14.1366C14.5324 14.111 14.6656 14.1241 14.7867 14.1743C14.9079 14.2244 15.0114 14.3093 15.0842 14.4183C15.157 14.5272 15.1958 14.6552 15.1958 14.7862C15.1958 14.9618 15.126 15.1302 15.0017 15.2543C14.8774 15.3785 14.7089 15.4483 14.5332 15.4483L14.5332 15.4482Z" fill="white"/>
</svg>
