<svg width="122" height="14" viewBox="0 0 122 14" fill="none" xmlns="http://www.w3.org/2000/svg">
<path d="M5.12206 10.0615C4.21491 10.0615 3.40643 9.86006 2.69654 9.45723C1.98666 9.0544 1.42746 8.4815 1.01896 7.73855C0.610462 6.99559 0.40625 6.11685 0.40625 5.10233C0.40625 4.09383 0.610462 3.22404 1.01896 2.49304C1.42746 1.76196 1.98666 1.19952 2.69654 0.805631C3.40643 0.411826 4.21491 0.214844 5.12206 0.214844C6.02913 0.214844 6.80099 0.401376 7.4377 0.774359C8.07433 1.14734 8.56169 1.6143 8.89978 2.17524C9.23779 2.73618 9.40679 3.30313 9.40679 3.87603V3.93865H7.58981C7.58981 3.9088 7.58697 3.87452 7.58136 3.83573C7.57568 3.79693 7.57007 3.75964 7.56447 3.72386C7.49121 3.1987 7.23767 2.76159 6.80383 2.41244C6.36999 2.06337 5.80377 1.88879 5.10517 1.88879C4.58678 1.88879 4.11355 2.00668 3.68532 2.24238C3.25716 2.47808 2.91346 2.83467 2.65431 3.31208C2.39508 3.78949 2.26554 4.38622 2.26554 5.10233C2.26554 5.81845 2.39366 6.41969 2.65005 6.90604C2.90644 7.39248 3.25006 7.76095 3.68113 8.01162C4.11213 8.2622 4.58678 8.38753 5.10517 8.38753C5.93899 8.38753 6.5517 8.18761 6.94331 7.78779C7.33484 7.38797 7.55034 6.91951 7.58981 6.3824H9.40679C9.40679 6.96131 9.2434 7.5342 8.91667 8.10108C8.58987 8.66804 8.10811 9.1365 7.47148 9.50647C6.83485 9.87645 6.05171 10.0615 5.12206 10.0615Z" fill="white"/>
<path d="M16.7088 10.0615C15.6947 10.0615 14.8762 9.81081 14.2537 9.30957C13.6312 8.80825 13.3198 8.11002 13.3198 7.2149C13.3198 6.57637 13.479 6.04821 13.7973 5.6305C14.1157 5.21278 14.5551 4.88904 15.1157 4.65928C15.6763 4.42952 16.3144 4.27886 17.0299 4.20721C18.0892 4.09383 18.8385 3.98346 19.278 3.87603C19.7174 3.76859 19.9372 3.59259 19.9372 3.34787V3.32997C19.9372 2.84662 19.7427 2.47958 19.354 2.22892C18.9653 1.97834 18.4103 1.85301 17.6891 1.85301C16.9285 1.85301 16.3412 1.99473 15.9271 2.27816C15.5129 2.56168 15.3059 3.01075 15.3059 3.62537H13.5057C13.5057 2.8973 13.6847 2.27967 14.0424 1.77241C14.4002 1.26515 14.8945 0.878787 15.5256 0.613242C16.1566 0.347617 16.8806 0.214844 17.6975 0.214844C18.4469 0.214844 19.13 0.335741 19.747 0.577376C20.364 0.819091 20.8555 1.17861 21.2217 1.65602C21.588 2.13344 21.771 2.72723 21.771 3.43741V7.97575C21.771 8.19656 21.7781 8.40993 21.7922 8.61578C21.8063 8.82171 21.8387 9.00523 21.8894 9.16635C21.9401 9.35129 22.0007 9.50497 22.0711 9.62729C22.1415 9.74969 22.1993 9.83171 22.2443 9.87352H20.4188C20.3851 9.83765 20.3358 9.76157 20.271 9.64526C20.2062 9.52888 20.1484 9.3931 20.0977 9.23792C20.0526 9.10665 20.0189 8.95749 19.9963 8.79036C19.6752 9.17822 19.2315 9.48707 18.6652 9.71683C18.099 9.94659 17.4468 10.0615 16.7088 10.0615ZM17.0891 8.45023C17.6131 8.45023 18.092 8.36219 18.5258 8.18611C18.9596 8.01011 19.3047 7.74156 19.5611 7.38053C19.8174 7.0195 19.9456 6.56442 19.9456 6.01543V5.19188C19.5963 5.29931 19.2047 5.38735 18.7709 5.45592C18.337 5.52456 17.8948 5.58275 17.4441 5.6305C16.6834 5.70808 16.1115 5.8483 15.7284 6.05122C15.3453 6.25414 15.1538 6.59426 15.1538 7.07168C15.1538 7.99071 15.7989 8.45023 17.0891 8.45023Z" fill="white"/>
<path d="M29.6983 10.0615C28.9827 10.0615 28.3306 9.95253 27.7418 9.73473C27.153 9.51692 26.6826 9.19318 26.3305 8.76351C25.9784 8.33384 25.8022 7.80569 25.8022 7.17911V6.9374H27.6278V7.11641C27.6278 7.5521 27.8165 7.88177 28.194 8.10559C28.5715 8.32933 29.0898 8.44129 29.749 8.44129C30.3236 8.44129 30.8167 8.34723 31.2279 8.15927C31.6392 7.97132 31.8449 7.67442 31.8449 7.26858C31.8449 6.83891 31.6435 6.53014 31.2406 6.34218C30.8378 6.15414 30.2279 5.98859 29.411 5.84537C28.8193 5.73793 28.2588 5.57975 27.7291 5.37089C27.1995 5.16203 26.7671 4.86964 26.4319 4.49365C26.0966 4.11774 25.929 3.62236 25.929 3.00774C25.929 2.41094 26.098 1.90368 26.4361 1.48596C26.7741 1.06825 27.2291 0.751952 27.8009 0.537157C28.3728 0.322282 29.0081 0.214844 29.7067 0.214844C30.3772 0.214844 30.9984 0.328298 31.5702 0.555049C32.1421 0.781799 32.6027 1.11448 32.952 1.5531C33.3013 1.99172 33.476 2.52138 33.476 3.14202V3.30313H31.6589V3.1778C31.6589 2.86753 31.566 2.61235 31.3801 2.41244C31.1942 2.21253 30.9533 2.06487 30.6575 1.96939C30.3617 1.87391 30.0476 1.82617 29.7152 1.82617C29.411 1.82617 29.1053 1.86045 28.7982 1.92909C28.4912 1.99773 28.2362 2.11404 28.0334 2.27816C27.8305 2.44229 27.7291 2.66461 27.7291 2.94504C27.7291 3.36877 27.9475 3.67461 28.3841 3.86257C28.8207 4.0506 29.3997 4.21322 30.1208 4.35043C30.7068 4.45787 31.2674 4.61154 31.8026 4.81145C32.3379 5.01136 32.7773 5.29781 33.121 5.67079C33.4647 6.04377 33.6366 6.54953 33.6366 7.18806C33.6366 7.84448 33.452 8.38459 33.083 8.80825C32.7139 9.23198 32.2308 9.54677 31.6336 9.75262C31.0364 9.95855 30.3913 10.0615 29.6983 10.0615Z" fill="white"/>
<path d="M37.8286 13.7853V0.367013H39.6625V1.53972C40.0288 1.12193 40.4639 0.796684 40.9682 0.563996C41.4725 0.331228 42.0007 0.214844 42.5529 0.214844C43.2797 0.214844 43.9529 0.404383 44.5727 0.783303C45.1925 1.16222 45.6925 1.71572 46.0728 2.44379C46.4531 3.17187 46.6433 4.05804 46.6433 5.10233C46.6433 6.17655 46.4573 7.08212 46.0855 7.81914C45.7136 8.55616 45.2178 9.11409 44.5981 9.49301C43.9783 9.87201 43.2965 10.0615 42.5529 10.0615C42.0007 10.0615 41.4725 9.94065 40.9682 9.69894C40.4639 9.45722 40.0288 9.12153 39.6625 8.69186V13.7853H37.8286ZM39.6709 5.71109C39.6709 6.20038 39.7893 6.6405 40.0259 7.03137C40.2626 7.42225 40.5738 7.7311 40.9598 7.95785C41.3458 8.18468 41.7584 8.29806 42.1979 8.29806C42.9191 8.29806 43.5262 8.03695 44.0191 7.5148C44.5121 6.99258 44.7586 6.1885 44.7586 5.10233C44.7586 4.0103 44.5121 3.20615 44.0191 2.68994C43.5262 2.17373 42.9191 1.91563 42.1979 1.91563C41.7584 1.91563 41.3471 2.02758 40.964 2.25132C40.5809 2.47515 40.2696 2.78099 40.0302 3.16886C39.7907 3.55672 39.6709 3.99534 39.6709 4.48471H39.6625V5.62155H39.6709V5.71109Z" fill="white"/>
<path d="M59.6238 6.88372C59.5789 7.39692 59.3816 7.89824 59.0325 8.38753C58.6827 8.87689 58.1841 9.27972 57.5368 9.59602C56.8887 9.91231 56.0994 10.0704 55.1703 10.0704C54.2405 10.0704 53.4221 9.86156 52.715 9.44385C52.0079 9.02605 51.4572 8.44722 51.0628 7.70728C50.6684 6.96725 50.4712 6.11384 50.4712 5.14714C50.4712 4.16841 50.6712 3.30907 51.0712 2.56912C51.4713 1.8291 52.0248 1.25177 52.7319 0.836983C53.439 0.422276 54.2545 0.214844 55.1785 0.214844C56.1136 0.214844 56.9239 0.423781 57.6086 0.841496C58.2925 1.25921 58.821 1.83511 59.1925 2.56912C59.5647 3.30313 59.7508 4.14751 59.7508 5.10233C59.7508 5.20977 59.7479 5.33961 59.7419 5.49178C59.7366 5.64395 59.7284 5.74688 59.7165 5.80056H52.3051C52.4178 6.63005 52.7263 7.2776 53.2305 7.74306C53.7348 8.20852 54.401 8.44129 55.2293 8.44129C55.8094 8.44129 56.284 8.36068 56.6533 8.19957C57.0225 8.03845 57.2998 7.83854 57.486 7.59983C57.6713 7.36113 57.776 7.12242 57.7984 6.88372H59.6238ZM55.1957 1.82617C54.4348 1.82617 53.801 2.04397 53.2939 2.47958C52.7868 2.91527 52.4657 3.51793 52.3305 4.28781H57.832C57.7872 3.61943 57.545 3.04202 57.1055 2.55566C56.666 2.06931 56.0291 1.82617 55.1957 1.82617Z" fill="white"/>
<path d="M63.9512 9.87352V0.367013H65.7848V1.62919C66.0277 1.21147 66.3566 0.871344 66.7737 0.608728C67.1908 0.346192 67.7065 0.214844 68.3202 0.214844C68.6813 0.214844 68.9728 0.244693 69.1948 0.304389C69.4175 0.364085 69.5543 0.411826 69.6052 0.447612L69.2165 2.27373C69.1597 2.23193 69.046 2.17825 68.8741 2.11261C68.7022 2.0469 68.4637 2.01412 68.1595 2.01412C67.5458 2.01412 67.0652 2.16328 66.7191 2.46169C66.3723 2.76009 66.1301 3.13157 65.9918 3.57612C65.8543 4.02076 65.7848 4.46682 65.7848 4.91438V9.87352H63.9512Z" fill="white"/>
<path d="M76.6024 10.0615C75.8871 10.0615 75.2353 9.95253 74.6463 9.73473C74.0573 9.51692 73.5871 9.19318 73.235 8.76351C72.883 8.33384 72.7065 7.80569 72.7065 7.17911V6.9374H74.5319V7.11641C74.5319 7.5521 74.721 7.88177 75.0985 8.10559C75.476 8.32933 75.994 8.44129 76.6533 8.44129C77.2281 8.44129 77.7214 8.34723 78.1325 8.15927C78.5437 7.97132 78.7492 7.67442 78.7492 7.26858C78.7492 6.83891 78.5481 6.53014 78.1452 6.34218C77.7424 6.15414 77.1324 5.98859 76.3154 5.84537C75.7241 5.73793 75.1635 5.57975 74.6336 5.37089C74.1036 5.16203 73.6715 4.86964 73.3359 4.49365C73.0011 4.11774 72.8336 3.62236 72.8336 3.00774C72.8336 2.41094 73.0026 1.90368 73.3404 1.48596C73.6783 1.06825 74.1335 0.751952 74.7053 0.537157C75.2771 0.322282 75.9125 0.214844 76.6114 0.214844C77.2819 0.214844 77.9031 0.328298 78.4749 0.555049C79.0467 0.781799 79.5072 1.11448 79.8562 1.5531C80.2061 1.99172 80.3802 2.52138 80.3802 3.14202V3.30313H78.5631V3.1778C78.5631 2.86753 78.4704 2.61235 78.2843 2.41244C78.0989 2.21253 77.8575 2.06487 77.5622 1.96939C77.2662 1.87391 76.9523 1.82617 76.6196 1.82617C76.3154 1.82617 76.0097 1.86045 75.7025 1.92909C75.3953 1.99773 75.1404 2.11404 74.9378 2.27816C74.7352 2.44229 74.6336 2.66461 74.6336 2.94504C74.6336 3.36877 74.8518 3.67461 75.2884 3.86257C75.7249 4.0506 76.3042 4.21322 77.0255 4.35043C77.6115 4.45787 78.1722 4.61154 78.7074 4.81145C79.2426 5.01136 79.6821 5.29781 80.0252 5.67079C80.369 6.04377 80.5409 6.54953 80.5409 7.18806C80.5409 7.84448 80.3563 8.38459 79.9878 8.80825C79.6185 9.23198 79.1349 9.54677 78.5377 9.75262C77.9412 9.95855 77.2961 10.0615 76.6024 10.0615Z" fill="white"/>
<path d="M85.612 9.87369L83.7104 0.367188H85.612L86.9388 8.40559L88.9331 0.367188H90.9274L92.9479 8.40559L94.2575 0.367188H96.1591L94.2657 9.87369H91.7392L89.9303 2.41713L88.1557 9.87369H85.612Z" fill="white"/>
<path d="M102.912 10.0615C101.897 10.0615 101.079 9.81081 100.456 9.30957C99.8334 8.80825 99.5225 8.11002 99.5225 7.2149C99.5225 6.57637 99.6817 6.04821 100 5.6305C100.319 5.21278 100.757 4.88904 101.318 4.65928C101.879 4.42952 102.517 4.27886 103.232 4.20721C104.291 4.09383 105.041 3.98346 105.481 3.87603C105.92 3.76859 106.14 3.59259 106.14 3.34787V3.32997C106.14 2.84662 105.946 2.47958 105.556 2.22892C105.167 1.97834 104.613 1.85301 103.892 1.85301C103.131 1.85301 102.544 1.99473 102.13 2.27816C101.716 2.56168 101.509 3.01075 101.509 3.62537H99.7086C99.7086 2.8973 99.8872 2.27967 100.245 1.77241C100.603 1.26515 101.097 0.878787 101.728 0.613242C102.359 0.347617 103.083 0.214844 103.9 0.214844C104.649 0.214844 105.333 0.335741 105.949 0.577376C106.567 0.819091 107.058 1.17861 107.424 1.65602C107.79 2.13344 107.974 2.72723 107.974 3.43741V7.97575C107.974 8.19656 107.981 8.40993 107.994 8.61578C108.009 8.82171 108.041 9.00523 108.092 9.16635C108.142 9.35129 108.203 9.50497 108.274 9.62729C108.344 9.74969 108.402 9.83171 108.447 9.87352H106.621C106.588 9.83765 106.538 9.76157 106.473 9.64526C106.409 9.52888 106.351 9.3931 106.3 9.23792C106.255 9.10665 106.221 8.95749 106.199 8.79036C105.878 9.17822 105.434 9.48707 104.868 9.71683C104.301 9.94659 103.649 10.0615 102.912 10.0615ZM103.291 8.45023C103.815 8.45023 104.294 8.36219 104.729 8.18611C105.162 8.01011 105.508 7.74156 105.763 7.38053C106.02 7.0195 106.148 6.56442 106.148 6.01543V5.19188C105.799 5.29931 105.407 5.38735 104.973 5.45592C104.54 5.52456 104.097 5.58275 103.646 5.6305C102.886 5.70808 102.314 5.8483 101.931 6.05122C101.548 6.25414 101.356 6.59426 101.356 7.07168C101.356 7.99071 102.001 8.45023 103.291 8.45023Z" fill="white"/>
<path d="M112.368 13.7853V0.367013H114.202V1.53972C114.569 1.12193 115.004 0.796684 115.508 0.563996C116.012 0.331228 116.541 0.214844 117.093 0.214844C117.82 0.214844 118.493 0.404383 119.113 0.783303C119.732 1.16222 120.232 1.71572 120.613 2.44379C120.993 3.17187 121.183 4.05804 121.183 5.10233C121.183 6.17655 120.997 7.08212 120.626 7.81914C120.253 8.55616 119.758 9.11409 119.138 9.49301C118.518 9.87201 117.836 10.0615 117.093 10.0615C116.541 10.0615 116.012 9.94065 115.508 9.69894C115.004 9.45722 114.569 9.12153 114.202 8.69186V13.7853H112.368ZM114.211 5.71109C114.211 6.20038 114.329 6.6405 114.566 7.03137C114.803 7.42225 115.114 7.7311 115.499 7.95785C115.886 8.18468 116.298 8.29806 116.738 8.29806C117.459 8.29806 118.066 8.03695 118.559 7.5148C119.052 6.99258 119.298 6.1885 119.298 5.10233C119.298 4.0103 119.052 3.20615 118.559 2.68994C118.066 2.17373 117.459 1.91563 116.738 1.91563C116.298 1.91563 115.887 2.02758 115.504 2.25132C115.12 2.47515 114.809 2.78099 114.57 3.16886C114.33 3.55672 114.211 3.99534 114.211 4.48471H114.202V5.62155H114.211V5.71109Z" fill="white"/>
</svg>
