<svg width="58" height="73" viewBox="0 0 58 73" fill="none" xmlns="http://www.w3.org/2000/svg">
<g id="Icono">
<path id="Trazado 612" d="M46.6352 25.9536C49.1032 26.6769 52.463 28.1715 53.6123 28.7087C54.5851 24.9916 54.4668 21.2385 53.3333 17.4451C50.2442 7.11032 41.0777 0.0636753 30.3491 0.000341796C29.6526 -0.00254212 28.967 0.0128238 28.2924 0.0464395C18.2943 0.550471 10.6406 5.24979 6.08444 14.7736C5.75985 15.4534 5.46982 16.1365 5.21434 16.823C13.5205 17.3457 29.7923 21.3134 30.305 21.5251C40.4981 22.0004 45.8177 25.4784 46.6352 25.9536Z" fill="white"/>
<path id="Trazado 613" d="M57.2968 62.1941C56.8498 61.1154 56.2131 60.1318 55.6091 59.1481C55.5707 59.0848 55.5209 58.9984 55.4596 58.8903L55.4554 58.8803C55.3952 58.7751 55.3284 58.6513 55.2517 58.5072C55.2218 58.4482 55.1833 58.3762 55.1506 58.3128C55.0979 58.2135 55.0494 58.1213 54.9924 58.0087C54.937 57.9021 54.8743 57.7768 54.8145 57.6588C54.7717 57.5752 54.732 57.4989 54.6875 57.4096C54.6134 57.2613 54.5338 57.0987 54.4552 56.9372C54.4183 56.8623 54.384 56.7932 54.3455 56.7154C54.263 56.544 54.1747 56.3611 54.0863 56.1768C54.0479 56.0962 54.0123 56.0213 53.9727 55.9392C53.8815 55.7462 53.7875 55.5446 53.6935 55.3415C53.6551 55.258 53.6179 55.1802 53.5795 55.0953C53.4799 54.8807 53.3802 54.6589 53.2791 54.4342C53.2434 54.355 53.2079 54.2772 53.1722 54.1966C53.0711 53.9719 52.9716 53.7415 52.8703 53.5096C52.8319 53.4218 52.7934 53.3354 52.755 53.246C52.6553 53.0142 52.5569 52.778 52.4573 52.5418C52.4189 52.4496 52.3805 52.3589 52.3418 52.2667C52.2437 52.0305 52.148 51.7929 52.0528 51.5552C52.0144 51.4573 51.9745 51.3592 51.936 51.2614C51.8436 51.0281 51.7551 50.795 51.6654 50.5601C51.6253 50.4564 51.5856 50.3527 51.5472 50.2475C51.4617 50.0185 51.3806 49.7924 51.2993 49.5649C51.2609 49.4539 51.2197 49.3445 51.1827 49.2351C51.1056 49.0147 51.0344 48.7973 50.9634 48.5798C50.9248 48.4649 50.8863 48.3508 50.8508 48.237C50.784 48.0253 50.7227 47.8179 50.6614 47.612C50.6272 47.4971 50.5917 47.3801 50.5603 47.2663C50.5047 47.0676 50.4549 46.8743 50.4051 46.6816C50.3609 46.5058 50.3125 46.3273 50.274 46.1588C49.5989 44.3126 49.2286 44.5689 49.2286 42.4864C49.2286 40.3535 51.0758 36.2721 52.1255 33.1038C52.5199 32.1917 52.8548 31.2546 53.1282 30.2983C53.1895 30.1255 53.2322 29.9512 53.2863 29.7784C51.741 29.0151 46.7006 27.1457 46.7006 27.1457C45.5797 30.065 44.5816 31.0313 43.1712 32.4585C39.9055 34.6849 38.8415 34.4592 36.4162 34.4344C32.6061 33.6091 31.4684 31.132 30.5284 29.4557C29.2907 26.5538 29.5386 22.4838 29.5386 22.4838C29.5386 22.4838 23.5427 21.0408 15.3945 19.4739C8.76203 18.1438 6.25119 17.9091 4.83665 17.9033C4.70704 18.3021 4.58752 18.7026 4.48057 19.1044H4.48204C4.29133 19.6485 4.16566 20.2137 4.10772 20.788C3.90103 21.9161 3.78103 23.0587 3.74877 24.2055C3.80837 26.2832 4.18699 28.3388 4.87107 30.2988C5.14426 31.2553 5.47968 32.1925 5.87513 33.1043C6.41496 34.7389 7.16842 36.614 7.77074 38.3422C8.33764 39.9638 8.77206 41.4544 8.77206 42.487C8.77206 44.5695 8.40174 44.3131 7.72662 46.1594C7.68652 46.3279 7.63839 46.5065 7.59407 46.6821C7.54574 46.8751 7.49595 47.0681 7.44034 47.2669C7.40758 47.3806 7.37202 47.4973 7.33926 47.6125C7.27797 47.8185 7.21681 48.0259 7.14983 48.2376C7.11286 48.3513 7.07443 48.4651 7.03727 48.5803C6.96608 48.7978 6.89502 49.0153 6.81795 49.2356C6.77952 49.345 6.73961 49.4545 6.69991 49.5654C6.6201 49.793 6.53901 50.0191 6.45352 50.2481C6.41509 50.3532 6.37371 50.4569 6.3338 50.5606C6.24557 50.7954 6.15587 51.0292 6.06469 51.2619C6.02626 51.3599 5.98636 51.458 5.94645 51.5558C5.85093 51.7934 5.75568 52.031 5.65902 52.2672C5.62039 52.3594 5.58195 52.4501 5.54351 52.5423C5.44392 52.7785 5.34419 53.0147 5.24439 53.2466C5.20609 53.3359 5.16893 53.4223 5.13076 53.5102C5.02969 53.742 4.92849 53.9725 4.8289 54.1971C4.79173 54.2778 4.75771 54.3556 4.72067 54.4348C4.62094 54.6594 4.51968 54.8812 4.42155 55.0958C4.38145 55.1808 4.34448 55.2586 4.30604 55.3421C4.21213 55.5448 4.11808 55.7467 4.02704 55.9397C3.98847 56.0218 3.95144 56.0966 3.913 56.1774C3.82611 56.3617 3.73781 56.5446 3.65379 56.716C3.61682 56.7938 3.5826 56.8629 3.54557 56.9378C3.46575 57.099 3.38594 57.2618 3.31195 57.4102C3.26783 57.4994 3.22793 57.5758 3.18655 57.6593C3.12526 57.7774 3.06409 57.9026 3.00861 58.0092C2.95166 58.1216 2.90166 58.2138 2.85046 58.3134C2.81624 58.3767 2.77927 58.4486 2.74792 58.5078C2.67232 58.6518 2.60408 58.7756 2.54566 58.8808L2.53997 58.8909C2.47981 58.999 2.43028 59.0854 2.39185 59.1487C1.78651 60.1323 1.1513 61.1159 0.704049 62.1946C0.293965 63.184 -0.423799 64.3146 0.329728 65.4063C1.1372 66.5756 2.36645 66.2674 3.41883 65.9765C5.09948 65.5128 6.45105 64.3146 7.62328 62.9046C9.29437 60.8956 10.8863 58.7987 12.5441 56.7741C12.6679 56.6214 12.7962 56.4644 12.9285 56.3132C13.3274 55.861 13.7746 55.4722 14.3499 55.488C14.4658 55.4908 14.5807 55.5092 14.6917 55.5427C15.7542 55.851 15.8668 57.0506 16.0134 58.0098C16.0932 58.5312 16.1487 59.0554 16.1872 59.5811C16.2628 60.6324 16.267 61.6909 16.2513 62.7511C16.2429 63.2797 16.2301 63.8097 16.2187 64.3395C16.1658 66.7374 15.8425 69.0273 16.9336 71.0954C18.117 73.3394 19.6541 73.5984 21.3787 71.8846C23.6702 69.6077 24.7839 66.3903 25.2923 63.2421C25.4078 62.5324 25.5062 61.8135 25.6227 61.102C25.6812 60.7463 25.7439 60.3935 25.8165 60.042C25.8892 59.6921 25.9703 59.345 26.0659 59.0022C26.1671 58.635 26.2653 58.249 26.3792 57.8703C26.4844 57.4962 26.6211 57.1319 26.788 56.7815C26.8678 56.6158 26.9606 56.4569 27.0656 56.3063C27.265 56.0097 27.5316 55.7658 27.8433 55.5948C28.0105 55.5063 28.1887 55.4409 28.3731 55.4004C28.4795 55.3768 28.5876 55.3619 28.6964 55.3557C28.8004 55.3485 29.2005 55.3485 29.3046 55.3557C29.4134 55.3618 29.5215 55.3767 29.6279 55.4004C29.8124 55.4407 29.9907 55.5061 30.1578 55.5948C30.4698 55.7658 30.7369 56.0097 30.9367 56.3063C31.2458 56.7484 31.4524 57.3014 31.6232 57.8703C31.7373 58.2488 31.8341 58.635 31.9366 59.0022C32.0305 59.345 32.1131 59.6916 32.1843 60.042C32.4023 61.0948 32.5361 62.1764 32.7086 63.2421C33.2184 66.3903 34.3307 69.6077 36.6224 71.8846C38.3485 73.5984 39.8838 73.3392 41.0687 71.0954C41.2022 70.8418 41.3179 70.579 41.4149 70.309C42.0827 68.4526 41.8293 66.4364 41.7836 64.3395C41.7722 63.8095 41.758 63.2796 41.751 62.7511C41.7352 61.6911 41.7395 60.6327 41.815 59.5811C41.852 59.0554 41.9076 58.5312 41.9872 58.0098C42.1354 57.0507 42.2465 55.851 43.3089 55.5427C43.4204 55.5092 43.5359 55.4908 43.6522 55.488C44.2262 55.4722 44.6749 55.8609 45.0736 56.3132C45.206 56.4644 45.3328 56.6214 45.458 56.7741C47.1157 58.799 48.7066 60.8958 50.3788 62.9046C51.5495 64.3145 52.901 65.5128 54.5817 65.9765C55.6355 66.2672 56.8648 66.5757 57.6708 65.4063C58.4235 64.3142 57.7057 63.1837 57.2968 62.1941ZM17.8859 30.4815C17.3835 30.4817 16.8923 30.3311 16.4745 30.0489C16.0567 29.7668 15.731 29.3656 15.5387 28.8963C15.3463 28.4269 15.296 27.9104 15.3939 27.4121C15.4919 26.9138 15.7339 26.4561 16.0891 26.0969C16.4444 25.7376 16.8971 25.493 17.3899 25.3939C17.8826 25.2948 18.3934 25.3457 18.8576 25.5402C19.3217 25.7347 19.7184 26.064 19.9975 26.4865C20.2765 26.909 20.4254 27.4057 20.4253 27.9137C20.4252 28.5948 20.1576 29.2479 19.6813 29.7294C19.2051 30.211 18.5593 30.4816 17.8858 30.4817L17.8859 30.4815Z" fill="white"/>
</g>
</svg>
