<svg width="279" height="60" viewBox="0 0 279 60" fill="none" xmlns="http://www.w3.org/2000/svg">
<path d="M37.5277 23.3106C39.1118 23.7692 41.2683 24.7171 42.0059 25.0577C42.6302 22.7005 42.5543 20.3204 41.8268 17.9147C39.8441 11.3607 33.9607 6.89194 27.0747 6.85178C26.6277 6.84995 26.1877 6.85969 25.7547 6.88101C19.3375 7.20065 14.4251 10.1808 11.5008 16.2205C11.2925 16.6516 11.1064 17.0848 10.9424 17.5202C16.2736 17.8517 26.7174 20.3679 27.0465 20.5022C33.5888 20.8035 37.003 23.0092 37.5277 23.3106Z" fill="white"/>
<path d="M44.3727 46.293C44.0858 45.6089 43.6772 44.9851 43.2895 44.3613C43.2649 44.3211 43.2329 44.2663 43.1936 44.1978L43.1909 44.1914C43.1523 44.1247 43.1093 44.0462 43.0601 43.9549C43.0409 43.9174 43.0163 43.8718 42.9952 43.8316C42.9614 43.7686 42.9303 43.7101 42.8937 43.6387C42.8581 43.5711 42.8179 43.4917 42.7795 43.4168C42.752 43.3638 42.7265 43.3154 42.698 43.2588C42.6504 43.1647 42.5993 43.0616 42.5489 42.9592C42.5252 42.9117 42.5032 42.8679 42.4785 42.8186C42.4255 42.7099 42.3689 42.5939 42.3121 42.477C42.2875 42.4258 42.2646 42.3784 42.2392 42.3263C42.1807 42.2039 42.1203 42.076 42.06 41.9473C42.0354 41.8943 42.0115 41.845 41.9869 41.7911C41.9229 41.655 41.8589 41.5144 41.794 41.3719C41.7711 41.3216 41.7484 41.2723 41.7254 41.2212C41.6605 41.0787 41.5967 40.9326 41.5317 40.7855C41.507 40.7298 41.4823 40.675 41.4576 40.6184C41.3936 40.4713 41.3305 40.3215 41.2666 40.1718C41.2419 40.1133 41.2173 40.0558 41.1925 39.9973C41.1295 39.8475 41.0681 39.6968 41.007 39.5461C40.9823 39.484 40.9567 39.4218 40.932 39.3598C40.8727 39.2118 40.8159 39.064 40.7583 38.915C40.7326 38.8493 40.7071 38.7835 40.6824 38.7168C40.6276 38.5716 40.5755 38.4282 40.5234 38.2839C40.4987 38.2135 40.4722 38.1441 40.4485 38.0747C40.399 37.935 40.3533 37.7971 40.3077 37.6592C40.2829 37.5863 40.2583 37.5139 40.2355 37.4418C40.1926 37.3075 40.1532 37.176 40.1139 37.0454C40.0919 36.9726 40.0692 36.8984 40.049 36.8262C40.0133 36.7002 39.9814 36.5776 39.9494 36.4554C39.921 36.3439 39.89 36.2307 39.8653 36.1239C39.432 34.953 39.1943 35.1156 39.1943 33.795C39.1943 32.4423 40.3799 29.854 41.0536 27.8447C41.3067 27.2663 41.5217 26.672 41.6972 26.0656C41.7365 25.956 41.7639 25.8455 41.7987 25.7359C40.8068 25.2518 37.5717 24.0663 37.5717 24.0663C36.8523 25.9176 36.2117 26.5305 35.3065 27.4355C33.2104 28.8475 32.5275 28.7043 30.9708 28.6886C28.5254 28.1652 27.7952 26.5943 27.1919 25.5312C26.3975 23.6909 26.5565 21.1099 26.5565 21.1099C26.5565 21.1099 22.7082 20.1948 17.4784 19.2011C13.2214 18.3576 11.6099 18.2087 10.702 18.2051C10.6188 18.458 10.5421 18.712 10.4734 18.9668H10.4744C10.352 19.3118 10.2713 19.6703 10.2341 20.0345C10.1015 20.7499 10.0245 21.4745 10.0037 22.2017C10.042 23.5193 10.285 24.8229 10.7241 26.0659C10.8994 26.6725 11.1147 27.2669 11.3685 27.8451C11.715 28.8817 12.1986 30.0708 12.5852 31.1668C12.949 32.1952 13.2279 33.1405 13.2279 33.7953C13.2279 35.116 12.9902 34.9534 12.5569 36.1242C12.5311 36.2311 12.5002 36.3443 12.4718 36.4557C12.4408 36.5781 12.4088 36.7005 12.3731 36.8266C12.3521 36.8987 12.3293 36.9727 12.3083 37.0458C12.2689 37.1764 12.2297 37.3079 12.1867 37.4421C12.1629 37.5143 12.1383 37.5864 12.1144 37.6595C12.0687 37.7974 12.0231 37.9353 11.9737 38.0751C11.949 38.1445 11.9234 38.2139 11.8979 38.2842C11.8467 38.4285 11.7946 38.5719 11.7398 38.7171C11.7151 38.7838 11.6885 38.8496 11.6629 38.9154C11.6063 39.0642 11.5487 39.2125 11.4902 39.3601C11.4655 39.4222 11.4399 39.4844 11.4143 39.5464C11.353 39.6972 11.2919 39.8478 11.2298 39.9976C11.205 40.0561 11.1803 40.1136 11.1557 40.1721C11.0918 40.3219 11.0277 40.4717 10.9637 40.6187C10.9391 40.6753 10.9153 40.7302 10.8908 40.7859C10.8259 40.9329 10.7609 41.0791 10.697 41.2215C10.6732 41.2727 10.6513 41.322 10.6275 41.3722C10.5635 41.5147 10.4985 41.6553 10.4356 41.7914C10.4098 41.8453 10.3861 41.8947 10.3614 41.9476C10.3011 42.0762 10.2408 42.2042 10.1823 42.3266C10.1576 42.3786 10.1338 42.4261 10.1092 42.4773C10.0534 42.5942 9.99671 42.7102 9.94278 42.8189C9.91906 42.8682 9.89709 42.9121 9.87332 42.9595C9.8221 43.0618 9.77087 43.165 9.72338 43.2591C9.69506 43.3158 9.66945 43.3641 9.6429 43.4171C9.60355 43.492 9.5643 43.5714 9.52869 43.639C9.49213 43.7103 9.46004 43.7687 9.42718 43.8319C9.40522 43.8721 9.38149 43.9177 9.36137 43.9552C9.31285 44.0465 9.26904 44.1251 9.23155 44.1918L9.2279 44.1982C9.18929 44.2667 9.1575 44.3215 9.13283 44.3617C8.7443 44.9855 8.3366 45.6092 8.04954 46.2933C7.78633 46.9208 7.32565 47.6377 7.80929 48.33C8.32755 49.0716 9.11652 48.8762 9.79198 48.6917C10.8707 48.3976 11.7382 47.6377 12.4905 46.7436C13.5631 45.4695 14.5849 44.1397 15.6489 42.8557C15.7284 42.7589 15.8107 42.6594 15.8956 42.5635C16.1516 42.2767 16.4387 42.0301 16.808 42.0401C16.8823 42.0419 16.9561 42.0536 17.0273 42.0749C17.7092 42.2703 17.7815 43.0311 17.8756 43.6394C17.9268 43.97 17.9625 44.3025 17.9872 44.6359C18.0357 45.3026 18.0384 45.9739 18.0283 46.6462C18.0229 46.9814 18.0147 47.3175 18.0074 47.6535C17.9734 49.1742 17.7659 50.6264 18.4662 51.9379C19.2258 53.361 20.2123 53.5252 21.3192 52.4384C22.79 50.9944 23.5049 48.9541 23.8311 46.9576C23.9053 46.5075 23.9684 46.0516 24.0432 45.6004C24.0808 45.3748 24.121 45.151 24.1676 44.9282C24.2142 44.7062 24.2663 44.4862 24.3276 44.2688C24.3926 44.0359 24.4556 43.7911 24.5288 43.5509C24.5963 43.3137 24.684 43.0827 24.7911 42.8604C24.8423 42.7554 24.9019 42.6546 24.9693 42.5591C25.0973 42.371 25.2684 42.2163 25.4685 42.1079C25.5758 42.0517 25.6901 42.0103 25.8085 41.9846C25.8768 41.9696 25.9462 41.9602 26.016 41.9563C26.0827 41.9517 26.3395 41.9517 26.4064 41.9563C26.4762 41.9601 26.5456 41.9696 26.6139 41.9846C26.7323 42.0101 26.8467 42.0516 26.954 42.1079C27.1543 42.2163 27.3257 42.371 27.4539 42.5591C27.6523 42.8394 27.7849 43.1902 27.8945 43.5509C27.9677 43.7909 28.0299 44.0359 28.0957 44.2688C28.156 44.4861 28.209 44.706 28.2547 44.9282C28.3946 45.5958 28.4805 46.2817 28.5912 46.9576C28.9184 48.9541 29.6323 50.9944 31.1032 52.4384C32.2111 53.5252 33.1965 53.3608 33.957 51.9379C34.0427 51.7771 34.1169 51.6104 34.1792 51.4392C34.6078 50.2619 34.4452 48.9833 34.4158 47.6535C34.4085 47.3174 34.3994 46.9813 34.3949 46.6462C34.3848 45.974 34.3875 45.3027 34.436 44.6359C34.4597 44.3025 34.4954 43.97 34.5465 43.6394C34.6416 43.0312 34.7129 42.2704 35.3948 42.0749C35.4664 42.0536 35.5405 42.0419 35.6151 42.0401C35.9836 42.0301 36.2716 42.2767 36.5275 42.5635C36.6124 42.6594 36.6938 42.7589 36.7742 42.8557C37.8382 44.1399 38.8593 45.4696 39.9326 46.7436C40.6839 47.6377 41.5514 48.3976 42.6301 48.6917C43.3065 48.876 44.0955 49.0716 44.6128 48.33C45.0959 47.6375 44.6352 46.9205 44.3727 46.293ZM19.0774 26.1818C18.755 26.1819 18.4397 26.0864 18.1715 25.9075C17.9034 25.7285 17.6944 25.4741 17.5709 25.1765C17.4475 24.8788 17.4151 24.5513 17.478 24.2353C17.5409 23.9193 17.6962 23.629 17.9242 23.4012C18.1523 23.1733 18.4428 23.0182 18.7591 22.9554C19.0754 22.8925 19.4032 22.9248 19.7011 23.0482C19.999 23.1715 20.2536 23.3803 20.4327 23.6483C20.6118 23.9162 20.7074 24.2312 20.7073 24.5534C20.7072 24.9853 20.5355 25.3994 20.2298 25.7048C19.9242 26.0102 19.5096 26.1818 19.0774 26.1819L19.0774 26.1818Z" fill="white"/>
<path d="M63.0365 39.6091C61.4077 39.6091 59.9561 39.2475 58.6815 38.5242C57.4069 37.8009 56.4029 36.7723 55.6695 35.4384C54.936 34.1044 54.5693 32.5266 54.5693 30.7051C54.5693 28.8943 54.936 27.3326 55.6695 26.0201C56.4029 24.7075 57.4069 23.6976 58.6815 22.9904C59.9561 22.2834 61.4077 21.9297 63.0365 21.9297C64.6651 21.9297 66.051 22.2646 67.1942 22.9343C68.3372 23.604 69.2123 24.4424 69.8193 25.4495C70.4262 26.4567 70.7296 27.4747 70.7296 28.5033V28.6157H67.4673C67.4673 28.5621 67.4622 28.5006 67.4521 28.4309C67.4419 28.3613 67.4318 28.2943 67.4218 28.2301C67.2903 27.2872 66.835 26.5023 66.0561 25.8754C65.2771 25.2487 64.2605 24.9352 63.0062 24.9352C62.0754 24.9352 61.2257 25.1469 60.4568 25.5701C59.6881 25.9933 59.071 26.6335 58.6057 27.4907C58.1402 28.3479 57.9077 29.4193 57.9077 30.7051C57.9077 31.9909 58.1377 33.0704 58.598 33.9436C59.0584 34.817 59.6753 35.4786 60.4493 35.9286C61.2232 36.3786 62.0754 36.6036 63.0062 36.6036C64.5033 36.6036 65.6034 36.2446 66.3065 35.5268C67.0095 34.8089 67.3964 33.9678 67.4673 33.0034H70.7296C70.7296 34.0428 70.4363 35.0715 69.8496 36.0893C69.2629 37.1072 68.3979 37.9484 67.2548 38.6126C66.1118 39.2769 64.7057 39.6091 63.0365 39.6091Z" fill="white"/>
<path d="M83.8407 39.6091C82.0198 39.6091 80.5504 39.1591 79.4327 38.2591C78.3148 37.359 77.7559 36.1053 77.7559 34.4982C77.7559 33.3517 78.0416 32.4034 78.6132 31.6534C79.1848 30.9034 79.9738 30.3221 80.9804 29.9096C81.987 29.4971 83.1326 29.2266 84.4172 29.0979C86.3191 28.8943 87.6646 28.6962 88.4536 28.5033C89.2426 28.3104 89.6372 27.9944 89.6372 27.555V27.5228C89.6372 26.655 89.2881 25.996 88.5902 25.5459C87.8922 25.096 86.8957 24.871 85.6008 24.871C84.2352 24.871 83.1806 25.1254 82.4371 25.6343C81.6936 26.1434 81.3218 26.9497 81.3218 28.0532H78.0896C78.0896 26.746 78.4109 25.637 79.0533 24.7263C79.6956 23.8155 80.5832 23.1218 81.7162 22.645C82.8492 22.1681 84.1492 21.9297 85.616 21.9297C86.9614 21.9297 88.188 22.1468 89.2957 22.5806C90.4035 23.0146 91.2861 23.6601 91.9436 24.5173C92.6012 25.3745 92.9299 26.4406 92.9299 27.7157V35.8643C92.9299 36.2607 92.9426 36.6438 92.9678 37.0134C92.9932 37.3832 93.0513 37.7127 93.1423 38.0019C93.2334 38.334 93.3422 38.6099 93.4686 38.8296C93.595 39.0493 93.6987 39.1966 93.7797 39.2717H90.502C90.4413 39.2073 90.3529 39.0707 90.2365 38.8618C90.1202 38.6529 90.0164 38.4091 89.9254 38.1305C89.8445 37.8948 89.7839 37.627 89.7433 37.3269C89.1668 38.0233 88.3701 38.5778 87.3535 38.9903C86.3368 39.4029 85.1658 39.6091 83.8407 39.6091ZM84.5235 36.7162C85.4643 36.7162 86.3242 36.5581 87.103 36.242C87.882 35.9259 88.5016 35.4438 88.962 34.7955C89.4222 34.1473 89.6523 33.3302 89.6523 32.3445V30.8659C89.0252 31.0588 88.322 31.2168 87.5431 31.3399C86.7641 31.4632 85.9702 31.5677 85.1609 31.6534C83.7952 31.7927 82.7683 32.0444 82.0805 32.4088C81.3925 32.7731 81.0487 33.3838 81.0487 34.241C81.0487 35.8911 82.2069 36.7162 84.5235 36.7162Z" fill="white"/>
<path d="M107.163 39.6091C105.878 39.6091 104.708 39.4135 103.65 39.0225C102.593 38.6314 101.749 38.0501 101.116 37.2787C100.484 36.5072 100.168 35.5589 100.168 34.4339V33.9999H103.446V34.3213C103.446 35.1036 103.785 35.6955 104.462 36.0974C105.14 36.4991 106.071 36.7001 107.254 36.7001C108.286 36.7001 109.171 36.5312 109.91 36.1938C110.648 35.8563 111.017 35.3232 111.017 34.5945C111.017 33.8231 110.656 33.2687 109.933 32.9312C109.209 32.5936 108.114 32.2963 106.647 32.0392C105.585 31.8463 104.579 31.5623 103.628 31.1873C102.677 30.8123 101.9 30.2873 101.298 29.6122C100.696 28.9373 100.396 28.0478 100.396 26.9443C100.396 25.8727 100.699 24.962 101.306 24.212C101.913 23.462 102.73 22.8941 103.757 22.5084C104.783 22.1226 105.924 21.9297 107.178 21.9297C108.382 21.9297 109.498 22.1334 110.524 22.5405C111.551 22.9476 112.378 23.545 113.005 24.3325C113.632 25.12 113.946 26.071 113.946 27.1854V27.4747H110.684V27.2496C110.684 26.6925 110.517 26.2344 110.183 25.8754C109.849 25.5165 109.417 25.2514 108.885 25.0799C108.354 24.9085 107.79 24.8228 107.194 24.8228C106.647 24.8228 106.099 24.8843 105.547 25.0076C104.996 25.1308 104.538 25.3397 104.174 25.6343C103.81 25.929 103.628 26.3282 103.628 26.8317C103.628 27.5925 104.02 28.1416 104.804 28.4791C105.588 28.8167 106.627 29.1087 107.922 29.3551C108.974 29.548 109.981 29.8239 110.942 30.1828C111.903 30.5417 112.692 31.0561 113.309 31.7257C113.926 32.3954 114.234 33.3035 114.234 34.45C114.234 35.6286 113.903 36.5983 113.24 37.359C112.578 38.1198 111.71 38.685 110.638 39.0546C109.566 39.4243 108.408 39.6091 107.163 39.6091Z" fill="white"/>
<path d="M121.761 46.2952V22.2029H125.053V24.3085C125.711 23.5583 126.492 22.9744 127.398 22.5566C128.303 22.1387 129.252 21.9297 130.243 21.9297C131.548 21.9297 132.757 22.27 133.87 22.9503C134.982 23.6307 135.88 24.6245 136.563 25.9317C137.246 27.239 137.587 28.8301 137.587 30.7051C137.587 32.6338 137.253 34.2598 136.586 35.5831C135.918 36.9064 135.028 37.9081 133.915 38.5885C132.802 39.269 131.578 39.6091 130.243 39.6091C129.252 39.6091 128.303 39.3922 127.398 38.9582C126.492 38.5242 125.711 37.9215 125.053 37.15V46.2952H121.761ZM125.069 31.7981C125.069 32.6766 125.281 33.4668 125.706 34.1686C126.131 34.8705 126.69 35.425 127.383 35.8321C128.076 36.2394 128.817 36.443 129.606 36.443C130.901 36.443 131.991 35.9741 132.876 35.0366C133.761 34.099 134.203 32.6553 134.203 30.7051C134.203 28.7444 133.761 27.3005 132.876 26.3737C131.991 25.4468 130.901 24.9834 129.606 24.9834C128.817 24.9834 128.078 25.1844 127.39 25.5862C126.702 25.988 126.143 26.5372 125.714 27.2336C125.284 27.93 125.069 28.7175 125.069 29.5962H125.053V31.6373H125.069V31.7981Z" fill="white"/>
<path d="M160.893 33.9035C160.813 34.825 160.458 35.7251 159.832 36.6036C159.204 37.4822 158.308 38.2055 157.146 38.7734C155.983 39.3413 154.565 39.6252 152.897 39.6252C151.228 39.6252 149.758 39.2502 148.489 38.5002C147.219 37.75 146.23 36.7108 145.522 35.3822C144.814 34.0535 144.46 32.5212 144.46 30.7855C144.46 29.0282 144.819 27.4853 145.537 26.1568C146.256 24.828 147.25 23.7915 148.519 23.0467C149.789 22.3021 151.253 21.9297 152.912 21.9297C154.591 21.9297 156.046 22.3048 157.275 23.0548C158.503 23.8048 159.452 24.8389 160.119 26.1568C160.787 27.4747 161.121 28.9907 161.121 30.7051C161.121 30.898 161.116 31.1311 161.105 31.4043C161.096 31.6776 161.081 31.8624 161.06 31.9587H147.753C147.955 33.4481 148.509 34.6107 149.414 35.4465C150.32 36.2822 151.516 36.7001 153.003 36.7001C154.045 36.7001 154.897 36.5554 155.56 36.2661C156.223 35.9768 156.721 35.6179 157.055 35.1893C157.388 34.7607 157.576 34.3321 157.616 33.9035H160.893ZM152.943 24.8228C151.577 24.8228 150.439 25.2139 149.528 25.996C148.618 26.7782 148.041 27.8603 147.798 29.2426H157.676C157.596 28.0426 157.161 27.0058 156.372 26.1326C155.583 25.2593 154.439 24.8228 152.943 24.8228Z" fill="white"/>
<path d="M168.663 39.2717V22.2029H171.955V24.4691C172.391 23.7191 172.982 23.1084 173.731 22.6369C174.48 22.1655 175.406 21.9297 176.508 21.9297C177.156 21.9297 177.679 21.9833 178.078 22.0905C178.478 22.1976 178.723 22.2834 178.815 22.3476L178.117 25.6264C178.015 25.5513 177.811 25.4549 177.502 25.3371C177.193 25.2191 176.765 25.1603 176.219 25.1603C175.117 25.1603 174.254 25.4281 173.633 25.9639C173.01 26.4996 172.575 27.1666 172.327 27.9648C172.08 28.7631 171.955 29.564 171.955 30.3676V39.2717H168.663Z" fill="white"/>
<path d="M191.378 39.6091C190.093 39.6091 188.923 39.4135 187.866 39.0225C186.808 38.6314 185.964 38.0501 185.332 37.2787C184.7 36.5072 184.383 35.5589 184.383 34.4339V33.9999H187.66V34.3213C187.66 35.1036 188 35.6955 188.678 36.0974C189.355 36.4991 190.285 36.7001 191.469 36.7001C192.501 36.7001 193.387 36.5312 194.125 36.1938C194.863 35.8563 195.232 35.3232 195.232 34.5945C195.232 33.8231 194.871 33.2687 194.148 32.9312C193.425 32.5936 192.329 32.2963 190.862 32.0392C189.801 31.8463 188.794 31.5623 187.843 31.1873C186.891 30.8123 186.115 30.2873 185.513 29.6122C184.912 28.9373 184.611 28.0478 184.611 26.9443C184.611 25.8727 184.914 24.962 185.521 24.212C186.128 23.462 186.945 22.8941 187.972 22.5084C188.998 22.1226 190.139 21.9297 191.394 21.9297C192.598 21.9297 193.713 22.1334 194.74 22.5405C195.766 22.9476 196.593 23.545 197.22 24.3325C197.848 25.12 198.161 26.071 198.161 27.1854V27.4747H194.898V27.2496C194.898 26.6925 194.732 26.2344 194.398 25.8754C194.065 25.5165 193.631 25.2514 193.101 25.0799C192.57 24.9085 192.006 24.8228 191.409 24.8228C190.862 24.8228 190.314 24.8843 189.762 25.0076C189.21 25.1308 188.753 25.3397 188.389 25.6343C188.025 25.929 187.843 26.3282 187.843 26.8317C187.843 27.5925 188.235 28.1416 189.018 28.4791C189.802 28.8167 190.842 29.1087 192.137 29.3551C193.19 29.548 194.196 29.8239 195.157 30.1828C196.118 30.5417 196.907 31.0561 197.523 31.7257C198.141 32.3954 198.449 33.3035 198.449 34.45C198.449 35.6286 198.118 36.5983 197.456 37.359C196.793 38.1198 195.925 38.685 194.853 39.0546C193.782 39.4243 192.623 39.6091 191.378 39.6091Z" fill="white"/>
<path d="M207.555 39.2719L204.141 22.2031H207.555L209.937 36.6359L213.518 22.2031H217.099L220.726 36.6359L223.078 22.2031H226.492L223.092 39.2719H218.556L215.308 25.8838L212.122 39.2719H207.555Z" fill="white"/>
<path d="M238.615 39.6091C236.794 39.6091 235.325 39.1591 234.207 38.2591C233.089 37.359 232.53 36.1053 232.53 34.4982C232.53 33.3517 232.816 32.4034 233.388 31.6534C233.96 30.9034 234.747 30.3221 235.754 29.9096C236.761 29.4971 237.907 29.2266 239.191 29.0979C241.093 28.8943 242.439 28.6962 243.228 28.5033C244.017 28.3104 244.412 27.9944 244.412 27.555V27.5228C244.412 26.655 244.063 25.996 243.364 25.5459C242.666 25.096 241.67 24.871 240.375 24.871C239.01 24.871 237.955 25.1254 237.212 25.6343C236.468 26.1434 236.096 26.9497 236.096 28.0532H232.864C232.864 26.746 233.185 25.637 233.828 24.7263C234.47 23.8155 235.358 23.1218 236.491 22.645C237.624 22.1681 238.924 21.9297 240.391 21.9297C241.736 21.9297 242.962 22.1468 244.07 22.5806C245.178 23.0146 246.06 23.6601 246.718 24.5173C247.375 25.3745 247.704 26.4406 247.704 27.7157V35.8643C247.704 36.2607 247.717 36.6438 247.742 37.0134C247.767 37.3832 247.825 37.7127 247.916 38.0019C248.007 38.334 248.116 38.6099 248.244 38.8296C248.37 39.0493 248.473 39.1966 248.554 39.2717H245.276C245.216 39.2073 245.127 39.0707 245.01 38.8618C244.895 38.6529 244.79 38.4091 244.699 38.1305C244.619 37.8948 244.558 37.627 244.518 37.3269C243.941 38.0233 243.145 38.5778 242.128 38.9903C241.11 39.4029 239.94 39.6091 238.615 39.6091ZM239.297 36.7162C240.238 36.7162 241.098 36.5581 241.878 36.242C242.656 35.9259 243.276 35.4438 243.735 34.7955C244.197 34.1473 244.427 33.3302 244.427 32.3445V30.8659C243.8 31.0588 243.097 31.2168 242.317 31.3399C241.538 31.4632 240.744 31.5677 239.935 31.6534C238.57 31.7927 237.543 32.0444 236.855 32.4088C236.167 32.7731 235.822 33.3838 235.822 34.241C235.822 35.8911 236.981 36.7162 239.297 36.7162Z" fill="white"/>
<path d="M255.595 46.2952V22.2029H258.888V24.3085C259.546 23.5583 260.327 22.9744 261.233 22.5566C262.137 22.1387 263.086 21.9297 264.078 21.9297C265.383 21.9297 266.592 22.27 267.704 22.9503C268.817 23.6307 269.715 24.6245 270.398 25.9317C271.08 27.239 271.422 28.8301 271.422 30.7051C271.422 32.6338 271.088 34.2598 270.421 35.5831C269.752 36.9064 268.863 37.9081 267.75 38.5885C266.637 39.269 265.412 39.6091 264.078 39.6091C263.086 39.6091 262.137 39.3922 261.233 38.9582C260.327 38.5242 259.546 37.9215 258.888 37.15V46.2952H255.595ZM258.903 31.7981C258.903 32.6766 259.115 33.4668 259.54 34.1686C259.966 34.8705 260.524 35.425 261.217 35.8321C261.911 36.2394 262.651 36.443 263.441 36.443C264.734 36.443 265.826 35.9741 266.71 35.0366C267.596 34.099 268.037 32.6553 268.037 30.7051C268.037 28.7444 267.596 27.3005 266.71 26.3737C265.826 25.4468 264.734 24.9834 263.441 24.9834C262.651 24.9834 261.913 25.1844 261.225 25.5862C260.536 25.988 259.978 26.5372 259.549 27.2336C259.118 27.93 258.903 28.7175 258.903 29.5962H258.888V31.6373H258.903V31.7981Z" fill="white"/>
</svg>
