<svg width="130" height="130" viewBox="0 0 130 130" fill="none" xmlns="http://www.w3.org/2000/svg">
<path d="M130 65C130 100.899 100.899 130 65 130C29.1015 130 0 100.899 0 65C0 29.1015 29.1015 0 65 0C100.899 0 130 29.1015 130 65ZM12.9913 65C12.9913 93.7236 36.2764 117.009 65 117.009C93.7236 117.009 117.009 93.7236 117.009 65C117.009 36.2764 93.7236 12.9913 65 12.9913C36.2764 12.9913 12.9913 36.2764 12.9913 65Z" fill="#C6BFFB"/>
<path d="M23.772 106.509C21.2439 109.055 17.1023 109.088 14.8219 106.318C7.52664 97.4586 2.6813 86.7918 0.835113 75.3867C-1.3583 61.8364 0.794319 47.9396 6.98446 35.6879C13.1746 23.4362 23.0845 13.4587 35.2937 7.18541C45.5702 1.90519 57.0316 -0.522645 68.4916 0.0939334C72.0738 0.286669 74.5046 3.64012 73.9554 7.18528V7.18528C73.4063 10.7304 70.0825 13.1161 66.4965 13.0129C57.7613 12.7614 49.0658 14.715 41.231 18.7406C31.4619 23.7601 23.5327 31.7434 18.5798 41.5464C13.6268 51.3494 11.9044 62.4687 13.6595 73.3108C15.067 82.0061 18.6532 90.165 24.038 97.0476C26.2486 99.873 26.3001 103.964 23.772 106.509V106.509Z" fill="#715FF5"/>
</svg>
