<svg width="130" height="130" viewBox="0 0 130 130" fill="none" xmlns="http://www.w3.org/2000/svg">
<path d="M130 65C130 100.899 100.899 130 65 130C29.1015 130 0 100.899 0 65C0 29.1015 29.1015 0 65 0C100.899 0 130 29.1015 130 65ZM12.9913 65C12.9913 93.7236 36.2764 117.009 65 117.009C93.7236 117.009 117.009 93.7236 117.009 65C117.009 36.2764 93.7236 12.9913 65 12.9913C36.2764 12.9913 12.9913 36.2764 12.9913 65Z" fill="#C6BFFB"/>
<path d="M20.3109 102.758C17.5706 105.073 13.4417 104.745 11.4113 101.787C3.9405 90.9049 -0.0702782 77.9561 0.000566482 64.6538C0.0829905 49.1774 5.68493 34.2381 15.7988 22.5233C25.9126 10.8084 39.8746 3.08667 55.1735 0.747024C68.323 -1.26394 81.7185 0.814617 93.5744 6.61766C96.7966 8.1948 97.724 12.2316 95.8333 15.2803V15.2803C93.9426 18.3291 89.9508 19.2264 86.6902 17.7302C77.4983 13.5122 67.2274 12.0459 57.1374 13.589C44.8963 15.461 33.7248 21.6394 25.6323 31.0129C17.5399 40.3864 13.0576 52.3398 12.9917 64.723C12.9373 74.9302 15.8864 84.8772 21.4004 93.3554C23.3564 96.3628 23.0511 100.443 20.3109 102.758V102.758Z" fill="#715FF5"/>
</svg>
