<svg width="130" height="130" viewBox="0 0 130 130" fill="none" xmlns="http://www.w3.org/2000/svg">
<path d="M130 65C130 100.899 100.899 130 65 130C29.1015 130 0 100.899 0 65C0 29.1015 29.1015 0 65 0C100.899 0 130 29.1015 130 65ZM12.9913 65C12.9913 93.7236 36.2764 117.009 65 117.009C93.7236 117.009 117.009 93.7236 117.009 65C117.009 36.2764 93.7236 12.9913 65 12.9913C36.2764 12.9913 12.9913 36.2764 12.9913 65Z" fill="#C6BFFB"/>
<path d="M12.061 89.9051C8.81482 91.4322 4.91179 90.0465 3.71611 86.6642C1.03331 79.0752 -0.222948 71.0352 0.0317932 62.9523C0.354915 52.6997 3.09993 42.6692 8.04241 33.6808C12.9849 24.6923 19.9845 17.0013 28.4689 11.2363C36.9534 5.47144 46.6818 1.79639 56.8587 0.511678C67.0356 -0.773037 77.372 0.369059 87.023 3.84459C96.6739 7.32012 105.365 13.0304 112.386 20.5085C119.408 27.9867 124.559 37.0204 127.42 46.871C129.676 54.637 130.457 62.7369 129.744 70.7546C129.427 74.328 125.99 76.6402 122.467 75.9676V75.9676C118.943 75.2951 116.675 71.8901 116.903 68.31C117.285 62.3191 116.628 56.2905 114.944 50.4944C112.655 42.6125 108.533 35.3844 102.915 29.4008C97.2976 23.4173 90.3433 18.8483 82.6212 16.0674C74.8992 13.2865 66.6286 12.3727 58.4857 13.4007C50.3429 14.4286 42.5588 17.3691 35.7702 21.9818C28.9815 26.5945 23.3808 32.7484 19.4262 39.9404C15.4715 47.1323 13.2752 55.1581 13.0166 63.3616C12.8265 69.3942 13.6883 75.397 15.5472 81.1049C16.6581 84.516 15.3071 88.3779 12.061 89.9051V89.9051Z" fill="#715FF5"/>
</svg>
