<svg width="130" height="130" viewBox="0 0 130 130" fill="none" xmlns="http://www.w3.org/2000/svg">
<path d="M130 65C130 100.899 100.899 130 65 130C29.1015 130 0 100.899 0 65C0 29.1015 29.1015 0 65 0C100.899 0 130 29.1015 130 65ZM12.9913 65C12.9913 93.7236 36.2764 117.009 65 117.009C93.7236 117.009 117.009 93.7236 117.009 65C117.009 36.2764 93.7236 12.9913 65 12.9913C36.2764 12.9913 12.9913 36.2764 12.9913 65Z" fill="#C6BFFB"/>
<path d="M50.0502 121.562C49.1335 125.03 45.5631 127.13 42.2036 125.871C33.4774 122.604 25.5541 117.496 18.9745 110.898C16.4413 108.358 16.8788 104.24 19.6591 101.972V101.972C22.4393 99.7053 26.5058 100.156 29.1016 102.633C33.8637 107.175 39.446 110.774 45.5497 113.235C48.8768 114.576 50.9669 118.094 50.0502 121.562V121.562Z" fill="#715FF5"/>
</svg>
