<svg width="130" height="130" viewBox="0 0 130 130" fill="none" xmlns="http://www.w3.org/2000/svg">
<path d="M130 65C130 100.899 100.899 130 65 130C29.1015 130 0 100.899 0 65C0 29.1015 29.1015 0 65 0C100.899 0 130 29.1015 130 65ZM12.9913 65C12.9913 93.7236 36.2764 117.009 65 117.009C93.7236 117.009 117.009 93.7236 117.009 65C117.009 36.2764 93.7236 12.9913 65 12.9913C36.2764 12.9913 12.9913 36.2764 12.9913 65Z" fill="#C6BFFB"/>
<path d="M14.433 94.4244C11.3323 96.2287 7.32339 95.1884 5.83747 91.9232C2.85703 85.3738 0.978421 78.3608 0.292794 71.1678C-0.59876 61.8143 0.548108 52.3787 3.65438 43.5111C6.76065 34.6436 11.7525 26.5548 18.2859 19.8023C24.8193 13.0497 32.739 7.7939 41.4993 4.3969C50.2597 0.999903 59.6523 -0.457489 69.0301 0.125139C78.4079 0.707768 87.5479 3.31657 95.8204 7.77178C104.093 12.227 111.301 18.4227 116.948 25.932C121.291 31.7069 124.632 38.153 126.846 44.9995C127.95 48.4129 125.69 51.8839 122.184 52.6417V52.6417C118.677 53.3995 115.259 51.1516 114.07 47.7668C112.307 42.7462 109.779 38.0136 106.566 33.7404C102.047 27.7319 96.2794 22.7745 89.6603 19.2098C83.0413 15.645 75.728 13.5576 68.2245 13.0914C60.721 12.6252 53.2056 13.7913 46.1962 16.5094C39.1868 19.2275 32.85 23.4328 27.6224 28.8358C22.3947 34.2387 18.4006 40.7108 15.9152 47.806C13.4297 54.9013 12.5121 62.451 13.2255 69.935C13.7328 75.2577 15.0565 80.4572 17.139 85.3539C18.543 88.6552 17.5337 92.6201 14.433 94.4244V94.4244Z" fill="#715FF5"/>
</svg>
