<svg width="130" height="130" viewBox="0 0 130 130" fill="none" xmlns="http://www.w3.org/2000/svg">
<path d="M130 65C130 100.899 100.899 130 65 130C29.1015 130 0 100.899 0 65C0 29.1015 29.1015 0 65 0C100.899 0 130 29.1015 130 65ZM12.9913 65C12.9913 93.7236 36.2764 117.009 65 117.009C93.7236 117.009 117.009 93.7236 117.009 65C117.009 36.2764 93.7236 12.9913 65 12.9913C36.2764 12.9913 12.9913 36.2764 12.9913 65Z" fill="#C6BFFB"/>
<path d="M7.34914 55.0371C3.8141 54.4262 1.41174 51.0521 2.37224 47.5957C6.13795 34.0444 14.2199 22.0165 25.4791 13.3943C38.4649 3.44971 54.7226 -1.23357 71.0088 0.278731C87.295 1.79103 102.412 9.38772 113.345 21.5533C124.278 33.7189 130.222 49.559 129.992 65.9137C129.763 82.2683 123.375 97.9351 112.105 109.789C100.835 121.642 85.5099 128.811 69.1877 129.865C52.8654 130.919 36.7458 125.781 24.0445 115.475C13.032 106.54 5.29131 94.2899 1.90789 80.6382C1.0449 77.1561 3.54112 73.8509 7.09193 73.3395V73.3395C10.6427 72.8282 13.896 75.3094 14.8456 78.7689C17.7054 89.1865 23.7576 98.5129 32.2299 105.387C42.3926 113.633 55.2905 117.744 68.3505 116.901C81.4105 116.058 93.6725 110.321 102.69 100.837C111.708 91.3526 116.819 78.817 117.002 65.7311C117.186 52.6452 112.43 39.971 103.682 30.2369C94.9347 20.5028 82.8388 14.4244 69.8076 13.2144C56.7765 12.0043 43.7682 15.7516 33.3777 23.7086C24.7156 30.342 18.4038 39.4947 15.2524 49.8278C14.2058 53.2592 10.8842 55.6481 7.34914 55.0371V55.0371Z" fill="#715FF5"/>
</svg>
