<svg width="130" height="130" viewBox="0 0 130 130" fill="none" xmlns="http://www.w3.org/2000/svg">
<path d="M130 65C130 100.899 100.899 130 65 130C29.1015 130 0 100.899 0 65C0 29.1015 29.1015 0 65 0C100.899 0 130 29.1015 130 65ZM12.9913 65C12.9913 93.7236 36.2764 117.009 65 117.009C93.7236 117.009 117.009 93.7236 117.009 65C117.009 36.2764 93.7236 12.9913 65 12.9913C36.2764 12.9913 12.9913 36.2764 12.9913 65Z" fill="#C6BFFB"/>
<path d="M27.5468 109.944C25.2502 112.7 21.1272 113.094 18.6141 110.534C11.777 103.569 6.57571 95.1318 3.42955 85.8341C-0.412762 74.4792 -1.04018 62.2828 1.61668 50.5935C4.27353 38.9042 10.1112 28.1772 18.4841 19.5986C25.3401 12.5743 33.6773 7.21448 42.8533 3.88907C46.2261 2.66676 49.7739 4.80384 50.6536 8.28175V8.28175C51.5334 11.7597 49.406 15.2544 46.0648 16.5606C39.2016 19.2434 32.9626 23.364 27.7811 28.6728C21.0816 35.5368 16.4107 44.1198 14.2849 53.4728C12.159 62.8258 12.661 72.5846 15.7354 81.6701C18.1132 88.697 21.958 95.1095 26.9873 100.495C29.4357 103.117 29.8435 107.188 27.5468 109.944V109.944Z" fill="#715FF5"/>
</svg>
