<svg width="130" height="130" viewBox="0 0 130 130" fill="none" xmlns="http://www.w3.org/2000/svg">
<path d="M130 65C130 100.899 100.899 130 65 130C29.1015 130 1.90735e-06 100.899 1.90735e-06 65C1.90735e-06 29.1015 29.1015 0 65 0C100.899 0 130 29.1015 130 65ZM12.9913 65C12.9913 93.7236 36.2764 117.009 65 117.009C93.7236 117.009 117.009 93.7236 117.009 65C117.009 36.2764 93.7236 12.9913 65 12.9913C36.2764 12.9913 12.9913 36.2764 12.9913 65Z" fill="#C6BFFB"/>
<path d="M40.4553 118.107C38.9503 121.363 35.0696 122.81 31.9795 120.988C22.0941 115.158 13.8927 106.792 8.25707 96.7056C2.62142 86.6197 -0.204938 75.25 0.0113145 63.7755C0.0789126 60.1887 3.34549 57.6424 6.90766 58.0675V58.0675C10.4698 58.4926 12.9701 61.7311 12.992 65.3185C13.0456 74.0571 15.3014 82.6792 19.598 90.3687C23.8946 98.0582 30.0551 104.499 37.4692 109.124C40.5128 111.023 41.9604 114.85 40.4553 118.107V118.107Z" fill="#715FF5"/>
</svg>
