<svg width="130" height="130" viewBox="0 0 130 130" fill="none" xmlns="http://www.w3.org/2000/svg">
<path d="M130 65C130 100.899 100.899 130 65 130C29.1015 130 0 100.899 0 65C0 29.1015 29.1015 0 65 0C100.899 0 130 29.1015 130 65ZM12.9913 65C12.9913 93.7236 36.2764 117.009 65 117.009C93.7236 117.009 117.009 93.7236 117.009 65C117.009 36.2764 93.7236 12.9913 65 12.9913C36.2764 12.9913 12.9913 36.2764 12.9913 65Z" fill="#C6BFFB"/>
<path d="M6.73514 70.2975C3.16243 70.6223 -0.0312986 67.9852 0.00192323 64.3979C0.108203 52.9218 3.25295 41.6361 9.16979 31.7125C16.1995 19.9225 26.7812 10.6606 39.3983 5.2542C52.0155 -0.152174 66.0203 -1.42544 79.4055 1.61688C92.7908 4.6592 104.869 11.8609 113.91 22.1899C122.951 32.5188 128.489 45.4447 129.732 59.115C130.975 72.7853 127.858 86.4981 120.829 98.2881C113.799 110.078 103.217 119.34 90.6 124.746C79.9803 129.297 68.3774 130.919 56.9884 129.505C53.4283 129.063 51.2374 125.548 52.0325 122.05V122.05C52.8276 118.551 56.3098 116.403 59.8798 116.756C68.5761 117.617 77.3868 116.274 85.4833 112.805C95.5787 108.479 104.045 101.069 109.67 91.635C115.295 82.2014 117.789 71.2293 116.794 60.2913C115.8 49.3532 111.368 39.0108 104.134 30.7462C96.9007 22.4817 87.2362 16.7193 76.5262 14.2851C65.8162 11.8508 54.6105 12.8696 44.5151 17.1954C34.4197 21.5212 25.9529 28.932 20.3282 38.3656C15.8172 45.9313 13.32 54.4866 13.0209 63.2203C12.8981 66.8056 10.3078 69.9726 6.73514 70.2975V70.2975Z" fill="#715FF5"/>
</svg>
