<svg width="22" height="21" viewBox="0 0 22 21" fill="none" xmlns="http://www.w3.org/2000/svg">
<path fill-rule="evenodd" clip-rule="evenodd" d="M11.25 0.6875C11.6069 0.6875 11.9327 0.890068 12.0907 1.21004L14.7696 6.63731L20.7606 7.51298C21.1136 7.56458 21.4068 7.81209 21.5168 8.15147C21.6269 8.49085 21.5347 8.86328 21.2792 9.11221L16.9449 13.3338L17.9678 19.2978C18.0281 19.6495 17.8835 20.005 17.5948 20.2147C17.306 20.4245 16.9233 20.4521 16.6074 20.286L11.25 17.4686L5.89264 20.286C5.57678 20.4521 5.19401 20.4245 4.90528 20.2147C4.61655 20.005 4.47194 19.6495 4.53227 19.2978L5.55516 13.3338L1.2209 9.11221C0.965323 8.86328 0.873193 8.49085 0.983234 8.15147C1.09328 7.81209 1.38641 7.56458 1.73944 7.51298L7.73041 6.63731L10.4094 1.21004C10.5673 0.890068 10.8932 0.6875 11.25 0.6875ZM11.25 3.74305L9.19382 7.90871C9.05737 8.18513 8.79376 8.37681 8.48874 8.42139L3.88916 9.09369L7.21665 12.3347C7.43778 12.55 7.53872 12.8605 7.48654 13.1647L6.70145 17.7422L10.8137 15.5796C11.0868 15.436 11.4132 15.436 11.6864 15.5796L15.7986 17.7422L15.0135 13.1647C14.9613 12.8605 15.0623 12.55 15.2834 12.3347L18.6109 9.09369L14.0113 8.42139C13.7063 8.37681 13.4427 8.18513 13.3062 7.90871L11.25 3.74305Z" fill="#D9D8E7"/>
<path d="M9.19382 7.90871L11.25 3.74305L13.3062 7.90871C13.4427 8.18513 13.7063 8.37681 14.0113 8.42139L18.6109 9.09369L15.2834 12.3347C15.0623 12.55 14.9613 12.8605 15.0135 13.1647L15.7986 17.7422L11.6864 15.5796C11.4132 15.436 11.0868 15.436 10.8137 15.5796L6.70145 17.7422L7.48654 13.1647C7.53872 12.8605 7.43778 12.55 7.21665 12.3347L3.88916 9.09369L8.48874 8.42139C8.79376 8.37681 9.05737 8.18513 9.19382 7.90871Z" fill="#D9D8E7"/>
</svg>
