<svg width="48" height="58" viewBox="0 0 48 58" fill="none" xmlns="http://www.w3.org/2000/svg">
<path d="M35.554 22.0654C37.171 22.5409 39.3723 23.5237 40.1253 23.8769C40.7626 21.4328 40.6851 18.965 39.9425 16.4708C37.9186 9.67528 31.9129 5.04187 24.8839 5.00022C24.4275 4.99833 23.9784 5.00843 23.5364 5.03054C16.9859 5.36195 11.9714 8.45192 8.98633 14.7141C8.77366 15.1611 8.58364 15.6103 8.41626 16.0617C13.8582 16.4054 24.5191 19.0143 24.855 19.1535C31.5332 19.466 35.0184 21.7529 35.554 22.0654Z" fill="#715FF5"/>
<path d="M42.5393 45.8947C42.2464 45.1854 41.8293 44.5387 41.4336 43.8919C41.4084 43.8502 41.3758 43.7934 41.3356 43.7224L41.3328 43.7157C41.2934 43.6466 41.2496 43.5652 41.1994 43.4704C41.1798 43.4316 41.1546 43.3843 41.1331 43.3426C41.0986 43.2773 41.0668 43.2167 41.0295 43.1426C40.9932 43.0725 40.9522 42.9902 40.913 42.9125C40.8849 42.8576 40.8589 42.8074 40.8297 42.7487C40.7812 42.6512 40.729 42.5443 40.6776 42.4381C40.6533 42.3889 40.6309 42.3434 40.6057 42.2923C40.5516 42.1796 40.4938 42.0593 40.4359 41.9381C40.4107 41.8851 40.3874 41.8359 40.3614 41.7818C40.3017 41.655 40.2401 41.5224 40.1785 41.3889C40.1533 41.3339 40.129 41.2828 40.1038 41.227C40.0386 41.0859 39.9732 40.94 39.907 40.7923C39.8836 40.7402 39.8604 40.6891 39.8369 40.636C39.7707 40.4883 39.7056 40.3368 39.6392 40.1844C39.614 40.1266 39.5888 40.0698 39.5636 40.011C39.4983 39.8586 39.4339 39.7032 39.3686 39.548C39.3434 39.4873 39.3182 39.4277 39.2929 39.3671C39.2286 39.2118 39.1659 39.0555 39.1036 38.8993C39.0784 38.8349 39.0522 38.7704 39.0271 38.7061C38.9665 38.5526 38.9085 38.3994 38.8498 38.2449C38.8235 38.1767 38.7975 38.1086 38.7723 38.0394C38.7163 37.8888 38.6632 37.7402 38.6099 37.5905C38.5847 37.5176 38.5577 37.4456 38.5335 37.3737C38.483 37.2288 38.4364 37.0858 38.3898 36.9428C38.3645 36.8672 38.3393 36.7922 38.3161 36.7174C38.2723 36.5782 38.2321 36.4419 38.1919 36.3064C38.1695 36.2309 38.1463 36.154 38.1257 36.0792C38.0893 35.9485 38.0567 35.8214 38.024 35.6947C37.995 35.5791 37.9633 35.4617 37.9382 35.3509C37.4958 34.137 37.2532 34.3055 37.2532 32.9362C37.2532 31.5337 38.4635 28.8501 39.1512 26.7668C39.4096 26.1671 39.629 25.5509 39.8081 24.9221C39.8483 24.8085 39.8763 24.6939 39.9117 24.5802C38.8993 24.0783 35.5969 22.8492 35.5969 22.8492C34.8625 24.7687 34.2087 25.4041 33.2846 26.3425C31.145 27.8065 30.4479 27.658 28.8589 27.6417C26.3626 27.0991 25.6172 25.4703 25.0014 24.3681C24.1905 22.4599 24.3529 19.7838 24.3529 19.7838C24.3529 19.7838 20.4245 18.835 15.0861 17.8047C10.7406 16.9301 9.09561 16.7758 8.16884 16.772C8.08392 17.0342 8.00562 17.2975 7.93555 17.5617H7.93651C7.81156 17.9195 7.72923 18.2911 7.69126 18.6687C7.55585 19.4105 7.47722 20.1618 7.45609 20.9159C7.49514 22.282 7.7432 23.6337 8.19139 24.9225C8.37038 25.5514 8.59013 26.1676 8.84922 26.7671C9.2029 27.8419 9.69655 29.0749 10.0912 30.2112C10.4626 31.2775 10.7472 32.2576 10.7472 32.9366C10.7472 34.3059 10.5046 34.1373 10.0623 35.3513C10.036 35.4621 10.0045 35.5795 9.97543 35.695C9.94376 35.8219 9.91114 35.9488 9.8747 36.0795C9.85324 36.1543 9.82994 36.231 9.80848 36.3068C9.76832 36.4422 9.72825 36.5786 9.68437 36.7178C9.66015 36.7926 9.63497 36.8674 9.61062 36.9431C9.56398 37.0861 9.51743 37.2291 9.46694 37.374C9.44175 37.446 9.41561 37.518 9.3896 37.5909C9.33731 37.7405 9.28418 37.8892 9.22817 38.0398C9.20299 38.1089 9.17588 38.1771 9.14973 38.2453C9.09193 38.3996 9.03315 38.5533 8.97342 38.7064C8.94824 38.7708 8.9221 38.8353 8.89595 38.8996C8.83337 39.0559 8.77096 39.2121 8.70763 39.3674C8.68232 39.4281 8.65714 39.4877 8.63196 39.5483C8.5667 39.7036 8.50136 39.8589 8.43598 40.0114C8.41089 40.0701 8.38654 40.1269 8.36153 40.1847C8.29532 40.3371 8.22901 40.4887 8.16376 40.6364C8.13941 40.6894 8.11712 40.7406 8.09286 40.7927C8.02752 40.9404 7.96117 41.0862 7.89688 41.2273C7.8706 41.2832 7.84638 41.3343 7.8212 41.3892C7.75967 41.5226 7.69805 41.6553 7.6384 41.7822C7.61313 41.8362 7.58887 41.8854 7.56369 41.9385C7.50676 42.0597 7.44891 42.1799 7.39386 42.2926C7.36964 42.3438 7.34722 42.3892 7.32296 42.4385C7.27067 42.5445 7.21838 42.6515 7.1699 42.7491C7.14099 42.8078 7.11485 42.858 7.08774 42.9129C7.04758 42.9905 7.00751 43.0729 6.97116 43.143C6.93385 43.2168 6.90109 43.2775 6.86754 43.343C6.84512 43.3846 6.8209 43.4319 6.80036 43.4708C6.75083 43.5655 6.70612 43.6469 6.66784 43.7161L6.66412 43.7227C6.62471 43.7938 6.59225 43.8506 6.56707 43.8922C6.17047 44.539 5.7543 45.1858 5.46127 45.895C5.1926 46.5456 4.72234 47.289 5.21603 48.0068C5.74506 48.7757 6.55043 48.573 7.23992 48.3818C8.34104 48.0768 9.22655 47.289 9.99456 46.3619C11.0894 45.0409 12.1324 43.6621 13.2185 42.3308C13.2997 42.2305 13.3837 42.1272 13.4704 42.0278C13.7317 41.7305 14.0248 41.4748 14.4017 41.4852C14.4776 41.487 14.5529 41.4991 14.6256 41.5212C15.3217 41.7238 15.3955 42.5126 15.4915 43.1434C15.5438 43.4862 15.5802 43.8309 15.6054 44.1765C15.6549 44.8678 15.6577 45.5638 15.6474 46.2609C15.6419 46.6085 15.6335 46.957 15.626 47.3054C15.5914 48.8821 15.3796 50.3877 16.0944 51.7476C16.8698 53.2231 17.8768 53.3934 19.0067 52.2665C20.5081 50.7694 21.2378 48.6538 21.5708 46.5838C21.6465 46.1171 21.7109 45.6444 21.7873 45.1766C21.8256 44.9427 21.8667 44.7107 21.9143 44.4796C21.9619 44.2495 22.015 44.0213 22.0776 43.7959C22.1439 43.5544 22.2083 43.3006 22.2829 43.0516C22.3518 42.8056 22.4414 42.5661 22.5507 42.3357C22.603 42.2268 22.6639 42.1223 22.7327 42.0232C22.8633 41.8282 23.038 41.6678 23.2422 41.5554C23.3517 41.4972 23.4684 41.4542 23.5893 41.4276C23.659 41.4121 23.7298 41.4023 23.8011 41.3982C23.8692 41.3935 24.1314 41.3935 24.1996 41.3982C24.2708 41.4022 24.3417 41.412 24.4114 41.4276C24.5323 41.4541 24.6491 41.4971 24.7586 41.5554C24.963 41.6678 25.138 41.8282 25.2689 42.0232C25.4714 42.3139 25.6067 42.6776 25.7187 43.0516C25.7934 43.3005 25.8568 43.5544 25.924 43.7959C25.9855 44.0213 26.0396 44.2492 26.0863 44.4796C26.2291 45.1718 26.3168 45.883 26.4298 46.5838C26.7638 48.6538 27.4925 50.7694 28.994 52.2665C30.1249 53.3934 31.1308 53.2229 31.9071 51.7476C31.9946 51.5809 32.0703 51.4081 32.1339 51.2305C32.5714 50.0099 32.4054 48.6842 32.3754 47.3054C32.368 46.9569 32.3587 46.6084 32.3541 46.2609C32.3438 45.564 32.3465 44.868 32.396 44.1765C32.4202 43.8309 32.4567 43.4862 32.5089 43.1434C32.6059 42.5127 32.6787 41.7239 33.3748 41.5212C33.4479 41.4991 33.5235 41.487 33.5997 41.4852C33.9758 41.4748 34.2698 41.7304 34.531 42.0278C34.6177 42.1272 34.7008 42.2305 34.7828 42.3308C35.8689 43.6623 36.9112 45.041 38.0068 46.3619C38.7738 47.2889 39.6593 48.0768 40.7604 48.3818C41.4509 48.5729 42.2562 48.7757 42.7843 48.0068C43.2775 47.2888 42.8072 46.5454 42.5393 45.8947ZM16.7183 25.0426C16.3892 25.0427 16.0674 24.9437 15.7936 24.7581C15.5199 24.5726 15.3065 24.3088 15.1805 24.0002C15.0545 23.6916 15.0215 23.352 15.0857 23.0243C15.1499 22.6967 15.3084 22.3957 15.5412 22.1595C15.7739 21.9233 16.0705 21.7624 16.3934 21.6973C16.7162 21.6321 17.0509 21.6656 17.355 21.7935C17.6591 21.9214 17.919 22.1379 18.1018 22.4157C18.2846 22.6935 18.3822 23.0201 18.3821 23.3542C18.382 23.802 18.2067 24.2314 17.8947 24.548C17.5827 24.8647 17.1595 25.0426 16.7183 25.0427L16.7183 25.0426Z" fill="#715FF5"/>
</svg>
