<svg width="130" height="130" viewBox="0 0 130 130" fill="none" xmlns="http://www.w3.org/2000/svg">
<path d="M130 65C130 100.899 100.899 130 65 130C29.1015 130 0 100.899 0 65C0 29.1015 29.1015 0 65 0C100.899 0 130 29.1015 130 65ZM12.9913 65C12.9913 93.7236 36.2764 117.009 65 117.009C93.7236 117.009 117.009 93.7236 117.009 65C117.009 36.2764 93.7236 12.9913 65 12.9913C36.2764 12.9913 12.9913 36.2764 12.9913 65Z" fill="#C6BFFB"/>
<path d="M8.54044 80.3343C5.07841 81.2746 1.47529 79.2321 0.885096 75.6935C-0.720585 66.0665 -0.141963 56.172 2.61378 46.7512C5.97929 35.2459 12.4609 24.8953 21.342 16.8439C30.2231 8.79251 41.1577 3.35384 52.9369 1.12923C64.7161 -1.09538 76.8811 -0.0192839 88.0869 4.23855C99.2927 8.49638 109.103 15.7701 116.433 25.2555C123.762 34.7409 128.326 46.0685 129.62 57.986C130.913 69.9034 128.886 81.9465 123.762 92.7837C119.567 101.657 113.429 109.44 105.835 115.571C103.044 117.825 98.994 116.959 97.0299 113.957V113.957C95.0658 110.955 95.9395 106.958 98.6735 104.636C104.289 99.8645 108.847 93.9372 112.018 87.2307C116.117 78.5595 117.74 68.9234 116.705 59.3879C115.669 49.8523 112.018 40.7887 106.153 33.1991C100.288 25.6095 92.4387 19.7896 83.4725 16.3827C74.5064 12.9759 64.7728 12.1149 55.3478 13.8948C45.9228 15.6748 37.1737 20.0265 30.0676 26.4687C22.9616 32.9109 17.7754 41.1927 15.0826 50.3985C12.9998 57.5185 12.4713 64.9766 13.5018 72.2732C14.0035 75.8254 12.0025 79.394 8.54044 80.3343V80.3343Z" fill="#715FF5"/>
</svg>
