<svg width="130" height="130" viewBox="0 0 130 130" fill="none" xmlns="http://www.w3.org/2000/svg">
<path d="M130 65C130 100.899 100.899 130 65 130C29.1015 130 0 100.899 0 65C0 29.1015 29.1015 0 65 0C100.899 0 130 29.1015 130 65ZM12.9913 65C12.9913 93.7236 36.2764 117.009 65 117.009C93.7236 117.009 117.009 93.7236 117.009 65C117.009 36.2764 93.7236 12.9913 65 12.9913C36.2764 12.9913 12.9913 36.2764 12.9913 65Z" fill="#C6BFFB"/>
<path d="M45.1774 120.044C43.9619 123.419 40.2222 125.199 36.9851 123.653C29.7218 120.184 23.1484 115.387 17.6131 109.491C12.0777 103.596 7.70437 96.7331 4.69939 89.2658C3.36012 85.9377 5.37209 82.3175 8.81717 81.317V81.317C12.2623 80.3164 15.8292 82.3205 17.2511 85.6141C19.6304 91.1254 22.9528 96.1987 27.0841 100.599C31.2154 104.999 36.0694 108.634 41.4199 111.356C44.6174 112.982 46.3929 116.668 45.1774 120.044V120.044Z" fill="#715FF5"/>
</svg>
