<svg width="130" height="130" viewBox="0 0 130 130" fill="none" xmlns="http://www.w3.org/2000/svg">
<path d="M130 65C130 100.899 100.899 130 65 130C29.1015 130 0 100.899 0 65C0 29.1015 29.1015 0 65 0C100.899 0 130 29.1015 130 65ZM12.9913 65C12.9913 93.7236 36.2764 117.009 65 117.009C93.7236 117.009 117.009 93.7236 117.009 65C117.009 36.2764 93.7236 12.9913 65 12.9913C36.2764 12.9913 12.9913 36.2764 12.9913 65Z" fill="#C6BFFB"/>
<path d="M6.49498 65.199C2.90756 65.2112 -0.0441852 62.3056 0.301555 58.7349C1.49057 46.455 6.15685 34.7177 13.8168 24.9327C22.8167 13.4363 35.425 5.30456 49.6102 1.84794C63.7953 -1.60868 78.7311 -0.188899 92.011 5.8785C105.291 11.9459 116.141 22.3075 122.814 35.2938C129.486 48.2801 131.592 63.1347 128.793 77.464C125.993 91.7933 118.451 104.763 107.381 114.283C96.3112 123.802 82.3587 129.318 67.7718 129.941C55.3565 130.471 43.097 127.43 32.4212 121.247C29.3169 119.449 28.6734 115.357 30.7722 112.448V112.448C32.871 109.538 36.9155 108.922 40.0638 110.642C48.3353 115.161 57.7195 117.367 67.2176 116.961C78.8891 116.463 90.053 112.05 98.9103 104.433C107.768 96.8155 113.803 86.4382 116.043 74.9729C118.283 63.5075 116.597 51.6218 111.259 41.2311C105.92 30.8403 97.2378 22.5496 86.6122 17.6949C75.9866 12.8401 64.0359 11.7041 52.6859 14.4699C41.3359 17.2356 31.2475 23.7421 24.0464 32.9408C18.1862 40.4266 14.5159 49.3406 13.3736 58.6966C12.9388 62.2576 10.0824 65.1868 6.49498 65.199V65.199Z" fill="#715FF5"/>
</svg>
