<svg width="130" height="130" viewBox="0 0 130 130" fill="none" xmlns="http://www.w3.org/2000/svg">
<path d="M130 65C130 100.899 100.899 130 65 130C29.1015 130 0 100.899 0 65C0 29.1015 29.1015 0 65 0C100.899 0 130 29.1015 130 65ZM12.9913 65C12.9913 93.7236 36.2764 117.009 65 117.009C93.7236 117.009 117.009 93.7236 117.009 65C117.009 36.2764 93.7236 12.9913 65 12.9913C36.2764 12.9913 12.9913 36.2764 12.9913 65Z" fill="#C6BFFB"/>
<path d="M7.41873 75.3549C3.88793 75.9898 0.476507 73.6411 0.196965 70.0645C-0.630376 59.4793 1.14608 48.8169 5.41546 39.0238C10.553 27.2392 19.0698 17.2427 29.8887 10.2985C40.7076 3.35422 53.3427 -0.225893 66.1963 0.0108429C79.05 0.247579 91.5447 4.29054 102.101 11.6285C112.656 18.9664 120.799 29.2697 125.499 41.2355C130.2 53.2012 131.246 66.2921 128.506 78.8525C125.766 91.4129 119.363 102.879 110.107 111.8C102.415 119.214 93.0396 124.594 82.8294 127.507C79.3796 128.491 75.9894 126.111 75.3544 122.58V122.58C74.7195 119.05 77.0855 115.712 80.5097 114.642C88.1965 112.24 95.2507 108.076 101.092 102.447C108.498 95.3081 113.621 86.1339 115.813 76.0838C118.005 66.0338 117.168 55.5594 113.408 45.9851C109.647 36.4109 103.131 28.1669 94.6853 22.2956C86.2392 16.4242 76.2417 13.1893 65.9571 12.9999C55.6725 12.8105 45.5627 15.6751 36.9061 21.2314C28.2495 26.7877 21.435 34.7862 17.3243 44.2155C14.0823 51.6519 12.6368 59.7148 13.0638 67.7568C13.2539 71.3392 10.9495 74.7199 7.41873 75.3549V75.3549Z" fill="#715FF5"/>
</svg>
