<svg width="130" height="130" viewBox="0 0 130 130" fill="none" xmlns="http://www.w3.org/2000/svg">
<path d="M130 65C130 100.899 100.899 130 65 130C29.1015 130 0 100.899 0 65C0 29.1015 29.1015 0 65 0C100.899 0 130 29.1015 130 65ZM12.9913 65C12.9913 93.7236 36.2764 117.009 65 117.009C93.7236 117.009 117.009 93.7236 117.009 65C117.009 36.2764 93.7236 12.9913 65 12.9913C36.2764 12.9913 12.9913 36.2764 12.9913 65Z" fill="#C6BFFB"/>
<path d="M35.9203 115.765C34.1372 118.878 30.145 119.982 27.2255 117.897C15.0737 109.22 6.22063 96.5738 2.2724 82.0367C-1.67584 67.4996 -0.436657 52.1123 5.65597 38.48C7.11975 35.2048 11.1216 34.1372 14.2345 35.9203V35.9203C17.3474 37.7035 18.3835 41.6615 17.0019 44.9722C12.5755 55.5799 11.7649 67.4217 14.8095 78.6316C17.8541 89.8416 24.5438 99.6463 33.7283 106.557C36.5948 108.714 37.7034 112.653 35.9203 115.765V115.765Z" fill="#715FF5"/>
</svg>
