<svg width="130" height="130" viewBox="0 0 130 130" fill="none" xmlns="http://www.w3.org/2000/svg">
<path d="M130 65C130 100.899 100.899 130 65 130C29.1015 130 0 100.899 0 65C0 29.1015 29.1015 0 65 0C100.899 0 130 29.1015 130 65ZM12.9913 65C12.9913 93.7236 36.2764 117.009 65 117.009C93.7236 117.009 117.009 93.7236 117.009 65C117.009 36.2764 93.7236 12.9913 65 12.9913C36.2764 12.9913 12.9913 36.2764 12.9913 65Z" fill="#C6BFFB"/>
<path d="M31.6063 113.038C29.5587 115.983 25.4857 116.735 22.759 114.403C16.6411 109.172 11.5332 102.838 7.71239 95.7105C2.86592 86.6699 0.2279 76.6107 0.0139999 66.3552C-0.1999 56.0998 2.0164 45.9393 6.48169 36.7045C10.002 29.4241 14.8414 22.8819 20.7358 17.4005C23.3629 14.9575 27.4637 15.5385 29.6324 18.3962V18.3962C31.8011 21.2539 31.2084 25.302 28.6431 27.8098C24.3505 32.0062 20.8049 36.926 18.1775 42.3598C14.6046 49.7489 12.8313 57.8786 13.0025 66.0843C13.1736 74.2901 15.2844 82.3388 19.1622 89.5725C22.0139 94.8919 25.7616 99.6596 30.2254 103.673C32.893 106.072 33.654 110.092 31.6063 113.038V113.038Z" fill="#715FF5"/>
</svg>
