<svg width="130" height="130" viewBox="0 0 130 130" fill="none" xmlns="http://www.w3.org/2000/svg">
<path d="M130 65C130 100.899 100.899 130 65 130C29.1015 130 0 100.899 0 65C0 29.1015 29.1015 0 65 0C100.899 0 130 29.1015 130 65ZM12.9913 65C12.9913 93.7236 36.2764 117.009 65 117.009C93.7236 117.009 117.009 93.7236 117.009 65C117.009 36.2764 93.7236 12.9913 65 12.9913C36.2764 12.9913 12.9913 36.2764 12.9913 65Z" fill="#C6BFFB"/>
<path d="M6.70026 60.0991C3.12543 59.7986 0.438156 56.6467 1.09378 53.1197C3.50614 40.142 9.82628 28.1498 19.2825 18.7938C30.2843 7.90852 44.8091 1.30606 60.2443 0.173962C75.6796 -0.95814 91.0123 3.45441 103.485 12.6179C115.957 21.7815 124.75 35.0946 128.283 50.1627C131.816 65.2308 129.856 81.065 122.756 94.8172C115.657 108.569 103.883 119.337 89.5533 125.184C75.2233 131.03 59.2775 131.572 44.584 126.711C31.9547 122.533 20.9629 114.599 13.0337 104.046C10.8787 101.178 11.885 97.1603 14.9538 95.3022V95.3022C18.0225 93.4441 21.9866 94.4569 24.2125 97.2702C30.4877 105.202 38.9735 111.171 48.6642 114.377C60.421 118.266 73.1798 117.833 84.6457 113.155C96.1116 108.477 105.532 99.8614 111.213 88.8577C116.893 77.8541 118.461 65.1846 115.635 53.1281C112.808 41.0716 105.772 30.4193 95.7926 23.0873C85.8131 15.7552 73.5449 12.2246 61.1946 13.1304C48.8444 14.0363 37.2226 19.3191 28.4197 28.0288C21.1637 35.2079 16.2154 44.3269 14.1194 54.2208C13.3759 57.7304 10.2751 60.3996 6.70026 60.0991V60.0991Z" fill="#715FF5"/>
</svg>
