<svg width="130" height="130" viewBox="0 0 130 130" fill="none" xmlns="http://www.w3.org/2000/svg">
<path d="M130 65C130 100.899 100.899 130 65 130C29.1015 130 0 100.899 0 65C0 29.1015 29.1015 0 65 0C100.899 0 130 29.1015 130 65ZM12.9913 65C12.9913 93.7236 36.2764 117.009 65 117.009C93.7236 117.009 117.009 93.7236 117.009 65C117.009 36.2764 93.7236 12.9913 65 12.9913C36.2764 12.9913 12.9913 36.2764 12.9913 65Z" fill="#C6BFFB"/>
<path d="M10.0918 85.1965C6.72486 86.435 2.95745 84.7143 2.0611 81.2407C-0.163636 72.6191 -0.599038 63.6086 0.809578 54.77C2.55993 43.7871 7.09902 33.437 13.9927 24.7098C20.8863 15.9825 29.9039 9.17004 40.1829 4.92393C50.4619 0.677814 61.6584 -0.859877 72.7015 0.45794C83.7447 1.77576 94.265 5.905 103.256 12.4507C112.247 18.9964 119.409 27.7396 124.055 37.8439C128.701 47.9483 130.677 59.0759 129.794 70.1622C129.083 79.0841 126.54 87.7391 122.349 95.5951C120.66 98.7603 116.594 99.546 113.613 97.5501V97.5501C110.632 95.5541 109.874 91.5336 111.483 88.3272C114.482 82.3518 116.31 75.8353 116.844 69.1305C117.551 60.2599 115.97 51.3564 112.252 43.2715C108.534 35.1867 102.804 28.1909 95.6099 22.9535C88.4158 17.7161 79.9982 14.4121 71.1622 13.3577C62.3262 12.3033 53.3675 13.5336 45.1429 16.9311C36.9183 20.3285 29.703 25.7795 24.1872 32.7624C18.6713 39.7454 15.0395 48.0268 13.639 56.8146C12.5804 63.4569 12.8234 70.2205 14.3317 76.7337C15.141 80.2287 13.4587 83.9581 10.0918 85.1965V85.1965Z" fill="#715FF5"/>
</svg>
