<svg width="130" height="130" viewBox="0 0 130 130" fill="none" xmlns="http://www.w3.org/2000/svg">
<path d="M130 65C130 100.899 100.899 130 65 130C29.1015 130 0 100.899 0 65C0 29.1015 29.1015 0 65 0C100.899 0 130 29.1015 130 65ZM12.9913 65C12.9913 93.7236 36.2764 117.009 65 117.009C93.7236 117.009 117.009 93.7236 117.009 65C117.009 36.2764 93.7236 12.9913 65 12.9913C36.2764 12.9913 12.9913 36.2764 12.9913 65Z" fill="#C6BFFB"/>
<path d="M17.19 98.7194C14.2583 100.787 10.174 100.1 8.40916 96.9769C5.28872 91.4545 2.98756 85.4948 1.58852 79.2842C-0.287325 70.9569 -0.504625 62.3417 0.949025 53.9305C2.40268 45.5193 5.49881 37.4767 10.0606 30.262C14.6225 23.0474 20.5607 16.8018 27.5362 11.8821C34.5117 6.96233 42.388 3.46468 50.7152 1.58884C59.0425 -0.287005 67.6577 -0.504305 76.0689 0.949346C84.4802 2.403 92.5227 5.49913 99.7374 10.061C105.118 13.4633 109.96 17.6312 114.115 22.424C116.465 25.1348 115.741 29.2127 112.809 31.2804V31.2804C109.877 33.348 105.852 32.6144 103.436 29.9632C100.31 26.5341 96.7327 23.5315 92.7945 21.0414C87.0218 17.3913 80.5866 14.914 73.8565 13.7509C67.1264 12.5877 60.2331 12.7616 53.5702 14.2625C46.9073 15.7635 40.6052 18.562 35.0239 22.4985C29.4425 26.435 24.6911 31.4322 21.0411 37.2049C17.391 42.9776 14.9137 49.4128 13.7505 56.1429C12.5874 62.873 12.7613 69.7663 14.2622 76.4292C15.2862 80.9747 16.914 85.3523 19.0951 89.4476C20.7815 92.614 20.1216 96.6517 17.19 98.7194V98.7194Z" fill="#715FF5"/>
</svg>
