<svg width="131" height="130" viewBox="0 0 131 130" fill="none" xmlns="http://www.w3.org/2000/svg">
<path d="M131 65C131 100.899 101.899 130 66 130C30.1015 130 1 100.899 1 65C1 29.1015 30.1015 0 66 0C101.899 0 131 29.1015 131 65ZM13.9913 65C13.9913 93.7236 37.2764 117.009 66 117.009C94.7236 117.009 118.009 93.7236 118.009 65C118.009 36.2764 94.7236 12.9913 66 12.9913C37.2764 12.9913 13.9913 36.2764 13.9913 65Z" fill="#C6BFFB"/>
<path d="M65.9988 130C30.1003 130 0.998795 100.898 0.998795 65C0.998795 29.1015 30.1003 0 65.9988 0C101.897 0 130.999 29.1015 130.999 65C130.999 100.898 101.897 130 65.9988 130ZM65.9988 12.9913C37.2752 12.9913 13.9901 36.2764 13.9901 65C13.9901 93.7236 37.2752 117.009 65.9988 117.009C94.7224 117.009 118.008 93.7236 118.008 65C118.008 36.2764 94.7224 12.9913 65.9988 12.9913Z" fill="#715FF5"/>
</svg>
