<svg width="32" height="30" viewBox="0 0 32 30" fill="none" xmlns="http://www.w3.org/2000/svg">
<rect x="31.0967" width="30" height="30.1929" rx="15" transform="rotate(90 31.0967 0)" fill="#715FF5"/>
<path d="M17.4914 22C17.3614 22 17.2366 21.9484 17.1447 21.8565C17.0528 21.7645 17.0011 21.6398 17.0011 21.5098L17.0011 8.52058C16.9953 8.42338 17.0185 8.32665 17.0677 8.24266C17.117 8.15867 17.1901 8.09116 17.2778 8.04883C17.3655 8.0065 17.4638 7.99119 17.5602 8.00486C17.6566 8.01853 17.7468 8.06059 17.8193 8.12563L17.8193 8.12967L17.8249 8.13529L23.9533 14.2629C24.0452 14.3549 24.0968 14.4796 24.0967 14.6096C24.0966 14.7396 24.0449 14.8644 23.9529 14.9562C23.8609 15.0481 23.7361 15.0997 23.6061 15.0996C23.4761 15.0995 23.3514 15.0478 23.2595 14.9558L17.9695 9.66578L17.9695 21.5017C17.9719 21.6311 17.9229 21.7562 17.8333 21.8496C17.7437 21.9429 17.6208 21.997 17.4914 22Z" fill="#6EEBD0"/>
<path d="M14.5094 8C14.6394 8 14.7641 8.05161 14.856 8.14354C14.9479 8.23548 14.9996 8.36026 14.9996 8.49028L14.9996 21.4794C15.0054 21.5766 14.9822 21.6735 14.933 21.7574C14.8837 21.8414 14.8106 21.9088 14.7229 21.9512C14.6352 21.9935 14.5369 22.0088 14.4405 21.9951C14.3441 21.9815 14.2539 21.9394 14.1815 21.8744L14.1758 21.8695L8.04746 15.742C8.00196 15.6964 7.96588 15.6424 7.94128 15.5829C7.91667 15.5234 7.90402 15.4596 7.90406 15.3952C7.9041 15.3308 7.9168 15.2671 7.94148 15.2076C7.96615 15.1481 8.0023 15.0942 8.04785 15.0487C8.09341 15.0032 8.14748 14.9671 8.20697 14.9425C8.26647 14.9179 8.33023 14.9052 8.39461 14.9052C8.459 14.9053 8.52276 14.918 8.58223 14.9427C8.6417 14.9674 8.6957 15.0035 8.7412 15.0491L14.0312 20.339L14.0312 8.5032C14.0294 8.43872 14.0404 8.37444 14.0634 8.3142C14.0865 8.25397 14.1212 8.19888 14.1657 8.15212C14.2101 8.10536 14.2633 8.06792 14.3223 8.0418C14.3813 8.01569 14.4449 8.00146 14.5094 8Z" fill="#6EEBD0"/>
</svg>
